<?xml version="1.0" encoding="UTF-8"?>

<!DOCTYPE svg PUBLIC '-//W3C//DTD SVG 1.0//EN' 'http://www.w3.org/TR/2001/REC-SVG-20010904/DTD/svg10.dtd'>
<svg style="fill-opacity:1; color-rendering:auto; color-interpolation:auto; text-rendering:auto; stroke:black; stroke-linecap:square; stroke-miterlimit:10; shape-rendering:auto; stroke-opacity:1; fill:black; stroke-dasharray:none; font-weight:normal; stroke-width:1; font-family:&apos;Dialog&apos;; font-style:normal; stroke-linejoin:miter; font-size:12; stroke-dashoffset:0; image-rendering:auto;" xmlns="http://www.w3.org/2000/svg" width="2376" xmlns:xlink="http://www.w3.org/1999/xlink" height="995">
  <!--Generated by Selena using Batik-->
  <defs id="genericDefs" />
  <g>
    <defs id="defs1">
      <clipPath clipPathUnits="userSpaceOnUse" id="clipPath1">
        <path d="M0 0 L12000 0 L12000 12000 L0 12000 L0 0 Z" />
      </clipPath>
      <clipPath clipPathUnits="userSpaceOnUse" id="clipPath2">
        <path d="M10 10 L10 982 L552 982 L552 10 Z" />
      </clipPath>
      <clipPath clipPathUnits="userSpaceOnUse" id="clipPath3">
        <path d="M10 10 L10 44 L318 44 L318 10 Z" />
      </clipPath>
      <clipPath clipPathUnits="userSpaceOnUse" id="clipPath4">
        <path d="M0 0 L0 32 L33 32 L33 0 Z" />
      </clipPath>
      <clipPath clipPathUnits="userSpaceOnUse" id="clipPath5">
        <path d="M0 0 L0 32 L265 32 L265 0 Z" />
      </clipPath>
      <clipPath clipPathUnits="userSpaceOnUse" id="clipPath6">
        <path d="M43 148 L43 705 L499 705 L499 148 Z" />
      </clipPath>
      <clipPath clipPathUnits="userSpaceOnUse" id="clipPath7">
        <path d="M43 168 L43 705 L499 705 L499 168 Z" />
      </clipPath>
      <clipPath clipPathUnits="userSpaceOnUse" id="clipPath8">
        <path d="M114 314 L114 659 L448 659 L448 314 Z" />
      </clipPath>
      <clipPath clipPathUnits="userSpaceOnUse" id="clipPath9">
        <path d="M114 334 L114 447 L448 447 L448 334 Z" />
      </clipPath>
      <clipPath clipPathUnits="userSpaceOnUse" id="clipPath10">
        <path d="M114 447 L114 659 L448 659 L448 447 Z" />
      </clipPath>
      <clipPath clipPathUnits="userSpaceOnUse" id="clipPath11">
        <path d="M127 499 L127 643 L435 643 L435 499 Z" />
      </clipPath>
      <clipPath clipPathUnits="userSpaceOnUse" id="clipPath12">
        <path d="M127 519 L127 643 L435 643 L435 519 Z" />
      </clipPath>
      <clipPath clipPathUnits="userSpaceOnUse" id="clipPath13">
        <path d="M140 561 L140 627 L422 627 L422 561 Z" />
      </clipPath>
      <clipPath clipPathUnits="userSpaceOnUse" id="clipPath14">
        <path d="M140 581 L140 627 L422 627 L422 581 Z" />
      </clipPath>
      <clipPath clipPathUnits="userSpaceOnUse" id="clipPath15">
        <path d="M127 717 L127 861 L415 861 L415 717 Z" />
      </clipPath>
      <clipPath clipPathUnits="userSpaceOnUse" id="clipPath16">
        <path d="M127 737 L127 861 L415 861 L415 737 Z" />
      </clipPath>
      <clipPath clipPathUnits="userSpaceOnUse" id="clipPath17">
        <path d="M140 779 L140 845 L402 845 L402 779 Z" />
      </clipPath>
      <clipPath clipPathUnits="userSpaceOnUse" id="clipPath18">
        <path d="M140 799 L140 845 L402 845 L402 799 Z" />
      </clipPath>
      <clipPath clipPathUnits="userSpaceOnUse" id="clipPath19">
        <path d="M241 54 L241 114 L301 114 L301 54 Z" />
      </clipPath>
      <clipPath clipPathUnits="userSpaceOnUse" id="clipPath20">
        <path d="M233 122 L233 138 L249 138 L249 122 Z" />
      </clipPath>
      <clipPath clipPathUnits="userSpaceOnUse" id="clipPath21">
        <path d="M0 0 L0 32 L47 32 L47 0 Z" />
      </clipPath>
      <clipPath clipPathUnits="userSpaceOnUse" id="clipPath22">
        <path d="M53 114 L53 972 L489 972 L489 114 Z" />
      </clipPath>
      <clipPath clipPathUnits="userSpaceOnUse" id="clipPath23">
        <path d="M261 130 L261 946 L301 946 L301 130 Z" />
      </clipPath>
      <clipPath clipPathUnits="userSpaceOnUse" id="clipPath24">
        <path d="M261 218 L261 691 L301 691 L301 218 Z" />
      </clipPath>
      <clipPath clipPathUnits="userSpaceOnUse" id="clipPath25">
        <path d="M271 229 L271 677 L301 677 L301 229 Z" />
      </clipPath>
      <clipPath clipPathUnits="userSpaceOnUse" id="clipPath26">
        <path d="M271 255 L271 304 L301 304 L301 255 Z" />
      </clipPath>
      <clipPath clipPathUnits="userSpaceOnUse" id="clipPath27">
        <path d="M281 266 L281 290 L301 290 L301 266 Z" />
      </clipPath>
      <clipPath clipPathUnits="userSpaceOnUse" id="clipPath28">
        <path d="M271 384 L271 433 L301 433 L301 384 Z" />
      </clipPath>
      <clipPath clipPathUnits="userSpaceOnUse" id="clipPath29">
        <path d="M281 395 L281 419 L301 419 L301 395 Z" />
      </clipPath>
      <clipPath clipPathUnits="userSpaceOnUse" id="clipPath30">
        <path d="M261 881 L261 930 L291 930 L291 881 Z" />
      </clipPath>
      <clipPath clipPathUnits="userSpaceOnUse" id="clipPath31">
        <path d="M271 892 L271 916 L291 916 L291 892 Z" />
      </clipPath>
      <clipPath clipPathUnits="userSpaceOnUse" id="clipPath32">
        <path d="M0 0 L0 32 L427 32 L427 0 Z" />
      </clipPath>
      <clipPath clipPathUnits="userSpaceOnUse" id="clipPath33">
        <path d="M0 0 L0 32 L192 32 L192 0 Z" />
      </clipPath>
      <clipPath clipPathUnits="userSpaceOnUse" id="clipPath34">
        <path d="M0 0 L0 32 L56 32 L56 0 Z" />
      </clipPath>
      <clipPath clipPathUnits="userSpaceOnUse" id="clipPath35">
        <path d="M0 0 L0 32 L244 32 L244 0 Z" />
      </clipPath>
      <clipPath clipPathUnits="userSpaceOnUse" id="clipPath36">
        <path d="M0 0 L0 32 L252 32 L252 0 Z" />
      </clipPath>
      <clipPath clipPathUnits="userSpaceOnUse" id="clipPath37">
        <path d="M0 0 L0 32 L232 32 L232 0 Z" />
      </clipPath>
      <clipPath clipPathUnits="userSpaceOnUse" id="clipPath38">
        <path d="M44 149 L44 183 L93 183 L93 149 Z" />
      </clipPath>
      <clipPath clipPathUnits="userSpaceOnUse" id="clipPath39">
        <path d="M0 0 L0 32 L39 32 L39 0 Z" />
      </clipPath>
      <clipPath clipPathUnits="userSpaceOnUse" id="clipPath40">
        <path d="M115 315 L115 349 L154 349 L154 315 Z" />
      </clipPath>
      <clipPath clipPathUnits="userSpaceOnUse" id="clipPath41">
        <path d="M0 0 L0 32 L29 32 L29 0 Z" />
      </clipPath>
      <clipPath clipPathUnits="userSpaceOnUse" id="clipPath42">
        <path d="M128 500 L128 534 L172 534 L172 500 Z" />
      </clipPath>
      <clipPath clipPathUnits="userSpaceOnUse" id="clipPath43">
        <path d="M0 0 L0 32 L34 32 L34 0 Z" />
      </clipPath>
      <clipPath clipPathUnits="userSpaceOnUse" id="clipPath44">
        <path d="M141 562 L141 596 L190 596 L190 562 Z" />
      </clipPath>
      <clipPath clipPathUnits="userSpaceOnUse" id="clipPath45">
        <path d="M128 718 L128 752 L172 752 L172 718 Z" />
      </clipPath>
      <clipPath clipPathUnits="userSpaceOnUse" id="clipPath46">
        <path d="M141 780 L141 814 L190 814 L190 780 Z" />
      </clipPath>
      <clipPath clipPathUnits="userSpaceOnUse" id="clipPath47">
        <path d="M268 145 L268 152 L275 152 L275 145 Z" />
      </clipPath>
      <clipPath clipPathUnits="userSpaceOnUse" id="clipPath48">
        <path d="M278 311 L278 318 L285 318 L285 311 Z" />
      </clipPath>
      <clipPath clipPathUnits="userSpaceOnUse" id="clipPath49">
        <path d="M278 496 L278 503 L285 503 L285 496 Z" />
      </clipPath>
      <clipPath clipPathUnits="userSpaceOnUse" id="clipPath50">
        <path d="M278 558 L278 565 L285 565 L285 558 Z" />
      </clipPath>
      <clipPath clipPathUnits="userSpaceOnUse" id="clipPath51">
        <path d="M268 714 L268 721 L275 721 L275 714 Z" />
      </clipPath>
      <clipPath clipPathUnits="userSpaceOnUse" id="clipPath52">
        <path d="M268 776 L268 783 L275 783 L275 776 Z" />
      </clipPath>
      <clipPath clipPathUnits="userSpaceOnUse" id="clipPath53">
        <path d="M291 889 L291 896 L306 896 L306 889 Z" />
      </clipPath>
      <clipPath clipPathUnits="userSpaceOnUse" id="clipPath54">
        <path d="M0 0 L0 32 L40 32 L40 0 Z" />
      </clipPath>
      <clipPath clipPathUnits="userSpaceOnUse" id="clipPath55">
        <path d="M0 0 L0 32 L49 32 L49 0 Z" />
      </clipPath>
      <clipPath clipPathUnits="userSpaceOnUse" id="clipPath56">
        <path d="M49 0 L49 32 L114 32 L114 0 Z" />
      </clipPath>
      <clipPath clipPathUnits="userSpaceOnUse" id="clipPath57">
        <path d="M291 226 L291 233 L306 233 L306 226 Z" />
      </clipPath>
      <clipPath clipPathUnits="userSpaceOnUse" id="clipPath58">
        <path d="M301 263 L301 270 L316 270 L316 263 Z" />
      </clipPath>
      <clipPath clipPathUnits="userSpaceOnUse" id="clipPath59">
        <path d="M0 0 L0 32 L58 32 L58 0 Z" />
      </clipPath>
      <clipPath clipPathUnits="userSpaceOnUse" id="clipPath60">
        <path d="M0 0 L0 32 L122 32 L122 0 Z" />
      </clipPath>
      <clipPath clipPathUnits="userSpaceOnUse" id="clipPath61">
        <path d="M122 0 L122 32 L321 32 L321 0 Z" />
      </clipPath>
      <clipPath clipPathUnits="userSpaceOnUse" id="clipPath62">
        <path d="M321 0 L321 32 L579 32 L579 0 Z" />
      </clipPath>
      <clipPath clipPathUnits="userSpaceOnUse" id="clipPath63">
        <path d="M301 392 L301 399 L316 399 L316 392 Z" />
      </clipPath>
      <clipPath clipPathUnits="userSpaceOnUse" id="clipPath64">
        <path d="M247 127 L247 134 L262 134 L262 127 Z" />
      </clipPath>
      <clipPath clipPathUnits="userSpaceOnUse" id="clipPath65">
        <path d="M0 0 L0 32 L22 32 L22 0 Z" />
      </clipPath>
      <clipPath clipPathUnits="userSpaceOnUse" id="clipPath66">
        <path d="M0 0 L0 32 L76 32 L76 0 Z" />
      </clipPath>
      <clipPath clipPathUnits="userSpaceOnUse" id="clipPath67">
        <path d="M76 0 L76 32 L287 32 L287 0 Z" />
      </clipPath>
    </defs>
    <g style="fill:white; stroke:white;">
      <rect x="0" y="0" width="2376" style="clip-path:url(#clipPath1); stroke:none;" height="995" />
      <rect x="0" y="0" width="2375" style="clip-path:url(#clipPath1); fill:none; stroke:blue;" height="994" />
      <rect x="10" y="10" width="542" style="clip-path:url(#clipPath2); stroke:none;" height="972" />
    </g>
    <g style="font-family:&apos;Segoe UI&apos;; font-size:24;">
      <rect x="10" y="10" width="541" style="clip-path:url(#clipPath2); fill:none;" height="971" />
      <polygon style="fill:white; clip-path:url(#clipPath3); stroke:none;" points=" 10 10 317 10 317 38 312 43 10 43 10 10" />
      <polygon style="fill:none; clip-path:url(#clipPath3);" points=" 10 10 317 10 317 38 312 43 10 43 10 10" />
      <text x="0" y="26" transform="translate(15,10)" style="clip-path:url(#clipPath4); stroke:none; font-weight:bold;" xml:space="preserve">sd </text>
      <text x="0" y="26" transform="translate(48,10)" style="clip-path:url(#clipPath5); stroke:none;" xml:space="preserve">ComputerPlayer.recieve1</text>
      <rect x="43" y="148" width="456" style="clip-path:url(#clipPath6); fill:rgb(236,233,234); stroke:none;" height="557" />
      <rect x="43" y="168" width="456" style="clip-path:url(#clipPath7); fill:rgb(236,233,234); stroke:none;" height="537" />
      <rect x="114" y="314" width="334" style="clip-path:url(#clipPath8); fill:rgb(237,233,243); stroke:none;" height="345" />
      <rect x="114" y="334" width="334" style="clip-path:url(#clipPath9); fill:rgb(237,233,243); stroke:none;" height="113" />
      <rect x="114" y="447" width="334" style="clip-path:url(#clipPath10); fill:rgb(237,233,243); stroke:none;" height="212" />
      <rect x="127" y="499" width="308" style="clip-path:url(#clipPath11); fill:rgb(240,238,249); stroke:none;" height="144" />
      <rect x="127" y="519" width="308" style="clip-path:url(#clipPath12); fill:rgb(240,238,249); stroke:none;" height="124" />
      <rect x="140" y="561" width="282" style="clip-path:url(#clipPath13); fill:rgb(241,234,239); stroke:none;" height="66" />
      <rect x="140" y="581" width="282" style="clip-path:url(#clipPath14); fill:rgb(241,234,239); stroke:none;" height="46" />
      <rect x="127" y="717" width="288" style="clip-path:url(#clipPath15); fill:rgb(235,241,234); stroke:none;" height="144" />
      <rect x="127" y="737" width="288" style="clip-path:url(#clipPath16); fill:rgb(235,241,234); stroke:none;" height="124" />
      <rect x="140" y="779" width="262" style="clip-path:url(#clipPath17); fill:rgb(239,232,234); stroke:none;" height="66" />
      <rect x="140" y="799" width="262" style="clip-path:url(#clipPath18); fill:rgb(239,232,234); stroke:none;" height="46" />
      <rect x="241" y="54" transform="translate(3,3)" width="60" style="clip-path:url(#clipPath19); fill:rgb(153,153,153); stroke:none;" height="60" />
      <rect x="241" y="54" transform="translate(3,3)" width="59" style="clip-path:url(#clipPath19); fill:none; stroke:rgb(153,153,153);" height="59" />
      <circle transform="translate(3,3)" style="clip-path:url(#clipPath20); fill:rgb(153,153,153); stroke:none;" r="4" cx="241" cy="130" />
      <rect x="241" y="54" width="60" style="clip-path:url(#clipPath19); fill:white; stroke:none;" height="60" />
      <rect x="241" y="54" width="59" style="clip-path:url(#clipPath19); fill:none;" height="59" />
      <text x="5" y="26" transform="translate(247,54)" style="clip-path:url(#clipPath21); stroke:none;" xml:space="preserve">self</text>
      <line x1="271" x2="271" y1="114" style="clip-path:url(#clipPath22); fill:none;" y2="972" />
      <rect x="261" y="130" width="20" style="clip-path:url(#clipPath23); fill:white; stroke:none;" height="816" />
      <rect x="261" y="130" width="19" style="clip-path:url(#clipPath23); fill:none;" height="815" />
      <rect x="263" y="218" width="17" style="clip-path:url(#clipPath24); fill:rgb(240,240,240); stroke:none;" height="473" />
      <rect x="271" y="229" width="20" style="clip-path:url(#clipPath25); fill:white; stroke:none;" height="448" />
      <rect x="271" y="229" width="19" style="clip-path:url(#clipPath25); fill:none;" height="447" />
      <rect x="273" y="255" width="17" style="clip-path:url(#clipPath26); fill:rgb(240,240,240); stroke:none;" height="49" />
      <rect x="281" y="266" width="20" style="clip-path:url(#clipPath27); fill:white; stroke:none;" height="24" />
      <rect x="281" y="266" width="19" style="clip-path:url(#clipPath27); fill:none;" height="23" />
      <rect x="273" y="384" width="17" style="clip-path:url(#clipPath28); fill:rgb(240,240,240); stroke:none;" height="49" />
      <rect x="281" y="395" width="20" style="clip-path:url(#clipPath29); fill:white; stroke:none;" height="24" />
      <rect x="281" y="395" width="19" style="clip-path:url(#clipPath29); fill:none;" height="23" />
      <rect x="263" y="881" width="17" style="clip-path:url(#clipPath30); fill:rgb(240,240,240); stroke:none;" height="49" />
      <rect x="271" y="892" width="20" style="clip-path:url(#clipPath31); fill:white; stroke:none;" height="24" />
      <rect x="271" y="892" width="19" style="clip-path:url(#clipPath31); fill:none;" height="23" />
      <circle style="clip-path:url(#clipPath20); stroke:none;" r="4" cx="241" cy="130" />
      <text x="0" y="26" transform="translate(58,170)" style="clip-path:url(#clipPath32); stroke:none;" xml:space="preserve">[position &lt; 0 || position &gt;= boardWidth]</text>
      <text x="0" y="26" transform="translate(185,336)" style="clip-path:url(#clipPath33); stroke:none;" xml:space="preserve">[!send(bestMove)]</text>
      <text x="0" y="26" transform="translate(253,459)" style="clip-path:url(#clipPath34); stroke:none;" xml:space="preserve">[else]</text>
      <text x="0" y="26" transform="translate(159,521)" style="clip-path:url(#clipPath35); stroke:none;" xml:space="preserve">[;y &lt; boardHeight;y++]</text>
      <text x="0" y="26" transform="translate(155,583)" style="clip-path:url(#clipPath36); stroke:none;" xml:space="preserve">[grid[bestMove][y] != 0]</text>
      <text x="0" y="26" transform="translate(149,739)" style="clip-path:url(#clipPath35); stroke:none;" xml:space="preserve">[;y &lt; boardHeight;y++]</text>
      <text x="0" y="26" transform="translate(155,801)" style="clip-path:url(#clipPath37); stroke:none;" xml:space="preserve">[grid[position][y] != 0]</text>
      <rect x="44" y="149" width="454" style="clip-path:url(#clipPath6); fill:none;" height="555" />
      <polygon style="fill:white; clip-path:url(#clipPath38); stroke:none;" points=" 44 149 92 149 92 177 87 182 44 182 44 149" />
      <polygon style="fill:none; clip-path:url(#clipPath38);" points=" 44 149 92 149 92 177 87 182 44 182 44 149" />
      <text x="0" y="26" transform="translate(49,149)" style="clip-path:url(#clipPath39); stroke:none; font-weight:bold;" xml:space="preserve">opt</text>
      <rect x="115" y="315" width="332" style="clip-path:url(#clipPath8); fill:none;" height="343" />
      <polygon style="fill:white; clip-path:url(#clipPath40); stroke:none;" points=" 115 315 153 315 153 343 148 348 115 348 115 315" />
      <polygon style="fill:none; clip-path:url(#clipPath40);" points=" 115 315 153 315 153 343 148 348 115 348 115 315" />
      <text x="0" y="26" transform="translate(120,315)" style="clip-path:url(#clipPath41); stroke:none; font-weight:bold;" xml:space="preserve">alt</text>
      <line x1="114" x2="448" y1="447" style="clip-path:url(#clipPath10); fill:none;" y2="447" />
      <rect x="128" y="500" width="306" style="clip-path:url(#clipPath11); fill:none;" height="142" />
      <polygon style="fill:white; clip-path:url(#clipPath42); stroke:none;" points=" 128 500 171 500 171 528 166 533 128 533 128 500" />
      <polygon style="fill:none; clip-path:url(#clipPath42);" points=" 128 500 171 500 171 528 166 533 128 533 128 500" />
      <text x="0" y="26" transform="translate(133,500)" style="clip-path:url(#clipPath43); stroke:none; font-weight:bold;" xml:space="preserve">for</text>
      <rect x="141" y="562" width="280" style="clip-path:url(#clipPath13); fill:none;" height="64" />
      <polygon style="fill:white; clip-path:url(#clipPath44); stroke:none;" points=" 141 562 189 562 189 590 184 595 141 595 141 562" />
      <polygon style="fill:none; clip-path:url(#clipPath44);" points=" 141 562 189 562 189 590 184 595 141 595 141 562" />
      <text x="0" y="26" transform="translate(146,562)" style="clip-path:url(#clipPath39); stroke:none; font-weight:bold;" xml:space="preserve">opt</text>
      <rect x="128" y="718" width="286" style="clip-path:url(#clipPath15); fill:none;" height="142" />
      <polygon style="fill:white; clip-path:url(#clipPath45); stroke:none;" points=" 128 718 171 718 171 746 166 751 128 751 128 718" />
      <polygon style="fill:none; clip-path:url(#clipPath45);" points=" 128 718 171 718 171 746 166 751 128 751 128 718" />
      <text x="0" y="26" transform="translate(133,718)" style="clip-path:url(#clipPath43); stroke:none; font-weight:bold;" xml:space="preserve">for</text>
      <rect x="141" y="780" width="260" style="clip-path:url(#clipPath17); fill:none;" height="64" />
      <polygon style="fill:white; clip-path:url(#clipPath46); stroke:none;" points=" 141 780 189 780 189 808 184 813 141 813 141 780" />
      <polygon style="fill:none; clip-path:url(#clipPath46);" points=" 141 780 189 780 189 808 184 813 141 813 141 780" />
      <text x="0" y="26" transform="translate(146,780)" style="clip-path:url(#clipPath39); stroke:none; font-weight:bold;" xml:space="preserve">opt</text>
      <path d="M271 148 L271 148" style="fill:none; clip-path:url(#clipPath1);" />
      <circle style="clip-path:url(#clipPath47); fill:rgb(64,64,64); stroke:none;" r="3" cx="271" cy="148" />
      <circle style="fill:none; clip-path:url(#clipPath47);" r="3" cx="271" cy="148" />
      <path d="M271 148 L271 148" style="fill:none; clip-path:url(#clipPath1);" />
      <circle style="clip-path:url(#clipPath47); fill:rgb(64,64,64); stroke:none;" r="3" cx="271" cy="148" />
      <circle style="fill:none; clip-path:url(#clipPath47);" r="3" cx="271" cy="148" />
      <path d="M281 314 L281 314" style="fill:none; clip-path:url(#clipPath1);" />
      <circle style="clip-path:url(#clipPath48); fill:rgb(64,64,64); stroke:none;" r="3" cx="281" cy="314" />
      <circle style="fill:none; clip-path:url(#clipPath48);" r="3" cx="281" cy="314" />
      <path d="M281 314 L281 314" style="fill:none; clip-path:url(#clipPath1);" />
      <circle style="clip-path:url(#clipPath48); fill:rgb(64,64,64); stroke:none;" r="3" cx="281" cy="314" />
      <circle style="fill:none; clip-path:url(#clipPath48);" r="3" cx="281" cy="314" />
      <path d="M281 499 L281 499" style="fill:none; clip-path:url(#clipPath1);" />
      <circle style="clip-path:url(#clipPath49); fill:rgb(64,64,64); stroke:none;" r="3" cx="281" cy="499" />
      <circle style="fill:none; clip-path:url(#clipPath49);" r="3" cx="281" cy="499" />
      <path d="M281 499 L281 499" style="fill:none; clip-path:url(#clipPath1);" />
      <circle style="clip-path:url(#clipPath49); fill:rgb(64,64,64); stroke:none;" r="3" cx="281" cy="499" />
      <circle style="fill:none; clip-path:url(#clipPath49);" r="3" cx="281" cy="499" />
      <path d="M281 561 L281 561" style="fill:none; clip-path:url(#clipPath1);" />
      <circle style="clip-path:url(#clipPath50); fill:rgb(64,64,64); stroke:none;" r="3" cx="281" cy="561" />
      <circle style="fill:none; clip-path:url(#clipPath50);" r="3" cx="281" cy="561" />
      <path d="M281 561 L281 561" style="fill:none; clip-path:url(#clipPath1);" />
      <circle style="clip-path:url(#clipPath50); fill:rgb(64,64,64); stroke:none;" r="3" cx="281" cy="561" />
      <circle style="fill:none; clip-path:url(#clipPath50);" r="3" cx="281" cy="561" />
      <path d="M271 717 L271 717" style="fill:none; clip-path:url(#clipPath1);" />
      <circle style="clip-path:url(#clipPath51); fill:rgb(64,64,64); stroke:none;" r="3" cx="271" cy="717" />
      <circle style="fill:none; clip-path:url(#clipPath51);" r="3" cx="271" cy="717" />
      <path d="M271 717 L271 717" style="fill:none; clip-path:url(#clipPath1);" />
      <circle style="clip-path:url(#clipPath51); fill:rgb(64,64,64); stroke:none;" r="3" cx="271" cy="717" />
      <circle style="fill:none; clip-path:url(#clipPath51);" r="3" cx="271" cy="717" />
      <path d="M271 779 L271 779" style="fill:none; clip-path:url(#clipPath1);" />
      <circle style="clip-path:url(#clipPath52); fill:rgb(64,64,64); stroke:none;" r="3" cx="271" cy="779" />
      <circle style="fill:none; clip-path:url(#clipPath52);" r="3" cx="271" cy="779" />
      <path d="M271 779 L271 779" style="fill:none; clip-path:url(#clipPath1);" />
      <circle style="clip-path:url(#clipPath52); fill:rgb(64,64,64); stroke:none;" r="3" cx="271" cy="779" />
      <circle style="fill:none; clip-path:url(#clipPath52);" r="3" cx="271" cy="779" />
      <path d="M281 881 L308 881 L308 892 L291 892" style="fill:none; clip-path:url(#clipPath1);" />
      <polygon style="clip-path:url(#clipPath53); stroke:none;" points=" 291 892 305 889 305 895" />
      <polygon style="fill:none; clip-path:url(#clipPath53);" points=" 291 892 305 889 305 895" />
      <text x="2" y="26" transform="translate(281,849)" style="clip-path:url(#clipPath54); stroke:none;" xml:space="preserve">1.2:</text>
      <text x="0" y="26" transform="translate(323,849)" style="clip-path:url(#clipPath55); stroke:none;" xml:space="preserve">doAI</text>
      <text x="49" y="26" transform="translate(323,849)" style="clip-path:url(#clipPath56); stroke:none;" xml:space="preserve">():void</text>
      <path d="M281 881 L308 881 L308 892 L291 892" style="fill:none; clip-path:url(#clipPath1);" />
      <polygon style="clip-path:url(#clipPath53); stroke:none;" points=" 291 892 305 889 305 895" />
      <polygon style="fill:none; clip-path:url(#clipPath53);" points=" 291 892 305 889 305 895" />
      <text x="2" y="26" transform="translate(281,849)" style="clip-path:url(#clipPath54); stroke:none;" xml:space="preserve">1.2:</text>
      <text x="0" y="26" transform="translate(323,849)" style="clip-path:url(#clipPath55); stroke:none;" xml:space="preserve">doAI</text>
      <text x="49" y="26" transform="translate(323,849)" style="clip-path:url(#clipPath56); stroke:none;" xml:space="preserve">():void</text>
      <path d="M281 218 L308 218 L308 229 L291 229" style="fill:none; clip-path:url(#clipPath1);" />
      <polygon style="clip-path:url(#clipPath57); stroke:none;" points=" 291 229 305 226 305 232" />
      <polygon style="fill:none; clip-path:url(#clipPath57);" points=" 291 229 305 226 305 232" />
      <text x="2" y="26" transform="translate(281,186)" style="clip-path:url(#clipPath54); stroke:none;" xml:space="preserve">1.1:</text>
      <text x="0" y="26" transform="translate(323,186)" style="clip-path:url(#clipPath55); stroke:none;" xml:space="preserve">doAI</text>
      <text x="49" y="26" transform="translate(323,186)" style="clip-path:url(#clipPath56); stroke:none;" xml:space="preserve">():void</text>
      <path d="M281 218 L308 218 L308 229 L291 229" style="fill:none; clip-path:url(#clipPath1);" />
      <polygon style="clip-path:url(#clipPath57); stroke:none;" points=" 291 229 305 226 305 232" />
      <polygon style="fill:none; clip-path:url(#clipPath57);" points=" 291 229 305 226 305 232" />
      <text x="2" y="26" transform="translate(281,186)" style="clip-path:url(#clipPath54); stroke:none;" xml:space="preserve">1.1:</text>
      <text x="0" y="26" transform="translate(323,186)" style="clip-path:url(#clipPath55); stroke:none;" xml:space="preserve">doAI</text>
      <text x="49" y="26" transform="translate(323,186)" style="clip-path:url(#clipPath56); stroke:none;" xml:space="preserve">():void</text>
      <path d="M291 255 L318 255 L318 266 L301 266" style="fill:none; clip-path:url(#clipPath1);" />
      <polygon style="clip-path:url(#clipPath58); stroke:none;" points=" 301 266 315 263 315 269" />
      <polygon style="fill:none; clip-path:url(#clipPath58);" points=" 301 266 315 263 315 269" />
      <text x="2" y="26" transform="translate(291,223)" style="clip-path:url(#clipPath59); stroke:none;" xml:space="preserve">1.1.1:</text>
      <text x="0" y="26" transform="translate(351,223)" style="clip-path:url(#clipPath60); stroke:none;" xml:space="preserve">bestMove=</text>
      <text x="122" y="26" transform="translate(351,223)" style="clip-path:url(#clipPath61); stroke:none;" xml:space="preserve">calculateBestMove</text>
      <text x="321" y="26" transform="translate(351,223)" style="clip-path:url(#clipPath62); stroke:none;" xml:space="preserve">():&lt;&lt;no text available&gt;&gt;</text>
      <path d="M291 255 L318 255 L318 266 L301 266" style="fill:none; clip-path:url(#clipPath1);" />
      <polygon style="clip-path:url(#clipPath58); stroke:none;" points=" 301 266 315 263 315 269" />
      <polygon style="fill:none; clip-path:url(#clipPath58);" points=" 301 266 315 263 315 269" />
      <text x="2" y="26" transform="translate(291,223)" style="clip-path:url(#clipPath59); stroke:none;" xml:space="preserve">1.1.1:</text>
      <text x="0" y="26" transform="translate(351,223)" style="clip-path:url(#clipPath60); stroke:none;" xml:space="preserve">bestMove=</text>
      <text x="122" y="26" transform="translate(351,223)" style="clip-path:url(#clipPath61); stroke:none;" xml:space="preserve">calculateBestMove</text>
      <text x="321" y="26" transform="translate(351,223)" style="clip-path:url(#clipPath62); stroke:none;" xml:space="preserve">():&lt;&lt;no text available&gt;&gt;</text>
      <path d="M291 384 L318 384 L318 395 L301 395" style="fill:none; clip-path:url(#clipPath1);" />
      <polygon style="clip-path:url(#clipPath63); stroke:none;" points=" 301 395 315 392 315 398" />
      <polygon style="fill:none; clip-path:url(#clipPath63);" points=" 301 395 315 392 315 398" />
      <text x="2" y="26" transform="translate(291,352)" style="clip-path:url(#clipPath59); stroke:none;" xml:space="preserve">1.1.2:</text>
      <text x="0" y="26" transform="translate(351,352)" style="clip-path:url(#clipPath55); stroke:none;" xml:space="preserve">doAI</text>
      <text x="49" y="26" transform="translate(351,352)" style="clip-path:url(#clipPath56); stroke:none;" xml:space="preserve">():void</text>
      <path d="M291 384 L318 384 L318 395 L301 395" style="fill:none; clip-path:url(#clipPath1);" />
      <polygon style="clip-path:url(#clipPath63); stroke:none;" points=" 301 395 315 392 315 398" />
      <polygon style="fill:none; clip-path:url(#clipPath63);" points=" 301 395 315 392 315 398" />
      <text x="2" y="26" transform="translate(291,352)" style="clip-path:url(#clipPath59); stroke:none;" xml:space="preserve">1.1.2:</text>
      <text x="0" y="26" transform="translate(351,352)" style="clip-path:url(#clipPath55); stroke:none;" xml:space="preserve">doAI</text>
      <text x="49" y="26" transform="translate(351,352)" style="clip-path:url(#clipPath56); stroke:none;" xml:space="preserve">():void</text>
      <path d="M241 130 L261 130" style="fill:none; clip-path:url(#clipPath1);" />
      <polygon style="clip-path:url(#clipPath64); stroke:none;" points=" 261 130 247 133 247 127" />
      <polygon style="fill:none; clip-path:url(#clipPath64);" points=" 261 130 247 133 247 127" />
      <text x="2" y="26" transform="translate(241,98)" style="clip-path:url(#clipPath65); stroke:none;" xml:space="preserve">1:</text>
      <text x="0" y="26" transform="translate(265,98)" style="clip-path:url(#clipPath66); stroke:none;" xml:space="preserve">recieve</text>
      <text x="76" y="26" transform="translate(265,98)" style="clip-path:url(#clipPath67); stroke:none;" xml:space="preserve">(in position:int):void</text>
      <path d="M241 130 L261 130" style="fill:none; clip-path:url(#clipPath1);" />
      <polygon style="clip-path:url(#clipPath64); stroke:none;" points=" 261 130 247 133 247 127" />
      <polygon style="fill:none; clip-path:url(#clipPath64);" points=" 261 130 247 133 247 127" />
      <text x="2" y="26" transform="translate(241,98)" style="clip-path:url(#clipPath65); stroke:none;" xml:space="preserve">1:</text>
      <text x="0" y="26" transform="translate(265,98)" style="clip-path:url(#clipPath66); stroke:none;" xml:space="preserve">recieve</text>
      <text x="76" y="26" transform="translate(265,98)" style="clip-path:url(#clipPath67); stroke:none;" xml:space="preserve">(in position:int):void</text>
    </g>
  </g>
</svg>
