<?xml version="1.0" encoding="UTF-8"?>

<!DOCTYPE svg PUBLIC '-//W3C//DTD SVG 1.0//EN' 'http://www.w3.org/TR/2001/REC-SVG-20010904/DTD/svg10.dtd'>
<svg style="fill-opacity:1; color-rendering:auto; color-interpolation:auto; text-rendering:auto; stroke:black; stroke-linecap:square; stroke-miterlimit:10; shape-rendering:auto; stroke-opacity:1; fill:black; stroke-dasharray:none; font-weight:normal; stroke-width:1; font-family:&apos;Dialog&apos;; font-style:normal; stroke-linejoin:miter; font-size:12; stroke-dashoffset:0; image-rendering:auto;" xmlns="http://www.w3.org/2000/svg" width="2376" xmlns:xlink="http://www.w3.org/1999/xlink" height="962">
  <!--Generated by Selena using Batik-->
  <defs id="genericDefs" />
  <g>
    <defs id="defs1">
      <clipPath clipPathUnits="userSpaceOnUse" id="clipPath1">
        <path d="M0 0 L12000 0 L12000 12000 L0 12000 L0 0 Z" />
      </clipPath>
      <clipPath clipPathUnits="userSpaceOnUse" id="clipPath2">
        <path d="M10 10 L10 949 L1929 949 L1929 10 Z" />
      </clipPath>
      <clipPath clipPathUnits="userSpaceOnUse" id="clipPath3">
        <path d="M10 10 L10 44 L306 44 L306 10 Z" />
      </clipPath>
      <clipPath clipPathUnits="userSpaceOnUse" id="clipPath4">
        <path d="M0 0 L0 32 L33 32 L33 0 Z" />
      </clipPath>
      <clipPath clipPathUnits="userSpaceOnUse" id="clipPath5">
        <path d="M0 0 L0 32 L253 32 L253 0 Z" />
      </clipPath>
      <clipPath clipPathUnits="userSpaceOnUse" id="clipPath6">
        <path d="M833 300 L833 366 L1103 366 L1103 300 Z" />
      </clipPath>
      <clipPath clipPathUnits="userSpaceOnUse" id="clipPath7">
        <path d="M833 320 L833 366 L1103 366 L1103 320 Z" />
      </clipPath>
      <clipPath clipPathUnits="userSpaceOnUse" id="clipPath8">
        <path d="M833 499 L833 565 L1103 565 L1103 499 Z" />
      </clipPath>
      <clipPath clipPathUnits="userSpaceOnUse" id="clipPath9">
        <path d="M833 519 L833 565 L1103 565 L1103 519 Z" />
      </clipPath>
      <clipPath clipPathUnits="userSpaceOnUse" id="clipPath10">
        <path d="M228 619 L228 849 L1876 849 L1876 619 Z" />
      </clipPath>
      <clipPath clipPathUnits="userSpaceOnUse" id="clipPath11">
        <path d="M228 639 L228 849 L1876 849 L1876 639 Z" />
      </clipPath>
      <clipPath clipPathUnits="userSpaceOnUse" id="clipPath12">
        <path d="M40 54 L40 114 L100 114 L100 54 Z" />
      </clipPath>
      <clipPath clipPathUnits="userSpaceOnUse" id="clipPath13">
        <path d="M32 122 L32 138 L48 138 L48 122 Z" />
      </clipPath>
      <clipPath clipPathUnits="userSpaceOnUse" id="clipPath14">
        <path d="M120 54 L120 114 L454 114 L454 54 Z" />
      </clipPath>
      <clipPath clipPathUnits="userSpaceOnUse" id="clipPath15">
        <path d="M474 54 L474 114 L632 114 L632 54 Z" />
      </clipPath>
      <clipPath clipPathUnits="userSpaceOnUse" id="clipPath16">
        <path d="M652 54 L652 114 L810 114 L810 54 Z" />
      </clipPath>
      <clipPath clipPathUnits="userSpaceOnUse" id="clipPath17">
        <path d="M899 54 L899 114 L1037 114 L1037 54 Z" />
      </clipPath>
      <clipPath clipPathUnits="userSpaceOnUse" id="clipPath18">
        <path d="M1126 54 L1126 114 L1600 114 L1600 54 Z" />
      </clipPath>
      <clipPath clipPathUnits="userSpaceOnUse" id="clipPath19">
        <path d="M1620 659 L1620 719 L1866 719 L1866 659 Z" />
      </clipPath>
      <clipPath clipPathUnits="userSpaceOnUse" id="clipPath20">
        <path d="M0 0 L0 32 L47 32 L47 0 Z" />
      </clipPath>
      <clipPath clipPathUnits="userSpaceOnUse" id="clipPath21">
        <path d="M40 114 L40 939 L100 939 L100 114 Z" />
      </clipPath>
      <clipPath clipPathUnits="userSpaceOnUse" id="clipPath22">
        <path d="M60 130 L60 913 L90 913 L90 130 Z" />
      </clipPath>
      <clipPath clipPathUnits="userSpaceOnUse" id="clipPath23">
        <path d="M60 156 L60 264 L80 264 L80 156 Z" />
      </clipPath>
      <clipPath clipPathUnits="userSpaceOnUse" id="clipPath24">
        <path d="M60 282 L60 384 L80 384 L80 282 Z" />
      </clipPath>
      <clipPath clipPathUnits="userSpaceOnUse" id="clipPath25">
        <path d="M60 402 L60 426 L80 426 L80 402 Z" />
      </clipPath>
      <clipPath clipPathUnits="userSpaceOnUse" id="clipPath26">
        <path d="M60 444 L60 897 L90 897 L90 444 Z" />
      </clipPath>
      <clipPath clipPathUnits="userSpaceOnUse" id="clipPath27">
        <path d="M70 455 L70 883 L90 883 L90 455 Z" />
      </clipPath>
      <clipPath clipPathUnits="userSpaceOnUse" id="clipPath28">
        <path d="M70 481 L70 583 L90 583 L90 481 Z" />
      </clipPath>
      <clipPath clipPathUnits="userSpaceOnUse" id="clipPath29">
        <path d="M70 601 L70 867 L90 867 L90 601 Z" />
      </clipPath>
      <clipPath clipPathUnits="userSpaceOnUse" id="clipPath30">
        <path d="M0 0 L0 32 L160 32 L160 0 Z" />
      </clipPath>
      <clipPath clipPathUnits="userSpaceOnUse" id="clipPath31">
        <path d="M160 0 L160 32 L165 32 L165 0 Z" />
      </clipPath>
      <clipPath clipPathUnits="userSpaceOnUse" id="clipPath32">
        <path d="M165 0 L165 32 L324 32 L324 0 Z" />
      </clipPath>
      <clipPath clipPathUnits="userSpaceOnUse" id="clipPath33">
        <path d="M120 114 L120 939 L454 939 L454 114 Z" />
      </clipPath>
      <clipPath clipPathUnits="userSpaceOnUse" id="clipPath34">
        <path d="M277 156 L277 264 L297 264 L297 156 Z" />
      </clipPath>
      <clipPath clipPathUnits="userSpaceOnUse" id="clipPath35">
        <path d="M277 182 L277 206 L297 206 L297 182 Z" />
      </clipPath>
      <clipPath clipPathUnits="userSpaceOnUse" id="clipPath36">
        <path d="M277 224 L277 248 L297 248 L297 224 Z" />
      </clipPath>
      <clipPath clipPathUnits="userSpaceOnUse" id="clipPath37">
        <path d="M277 601 L277 867 L297 867 L297 601 Z" />
      </clipPath>
      <clipPath clipPathUnits="userSpaceOnUse" id="clipPath38">
        <path d="M277 689 L277 743 L297 743 L297 689 Z" />
      </clipPath>
      <clipPath clipPathUnits="userSpaceOnUse" id="clipPath39">
        <path d="M277 765 L277 789 L297 789 L297 765 Z" />
      </clipPath>
      <clipPath clipPathUnits="userSpaceOnUse" id="clipPath40">
        <path d="M0 0 L0 32 L80 32 L80 0 Z" />
      </clipPath>
      <clipPath clipPathUnits="userSpaceOnUse" id="clipPath41">
        <path d="M80 0 L80 32 L85 32 L85 0 Z" />
      </clipPath>
      <clipPath clipPathUnits="userSpaceOnUse" id="clipPath42">
        <path d="M85 0 L85 32 L148 32 L148 0 Z" />
      </clipPath>
      <clipPath clipPathUnits="userSpaceOnUse" id="clipPath43">
        <path d="M474 114 L474 206 L632 206 L632 114 Z" />
      </clipPath>
      <clipPath clipPathUnits="userSpaceOnUse" id="clipPath44">
        <path d="M543 182 L543 206 L563 206 L563 182 Z" />
      </clipPath>
      <clipPath clipPathUnits="userSpaceOnUse" id="clipPath45">
        <path d="M0 0 L0 32 L79 32 L79 0 Z" />
      </clipPath>
      <clipPath clipPathUnits="userSpaceOnUse" id="clipPath46">
        <path d="M79 0 L79 32 L84 32 L84 0 Z" />
      </clipPath>
      <clipPath clipPathUnits="userSpaceOnUse" id="clipPath47">
        <path d="M84 0 L84 32 L148 32 L148 0 Z" />
      </clipPath>
      <clipPath clipPathUnits="userSpaceOnUse" id="clipPath48">
        <path d="M652 114 L652 248 L810 248 L810 114 Z" />
      </clipPath>
      <clipPath clipPathUnits="userSpaceOnUse" id="clipPath49">
        <path d="M721 224 L721 248 L741 248 L741 224 Z" />
      </clipPath>
      <clipPath clipPathUnits="userSpaceOnUse" id="clipPath50">
        <path d="M0 0 L0 32 L62 32 L62 0 Z" />
      </clipPath>
      <clipPath clipPathUnits="userSpaceOnUse" id="clipPath51">
        <path d="M62 0 L62 32 L67 32 L67 0 Z" />
      </clipPath>
      <clipPath clipPathUnits="userSpaceOnUse" id="clipPath52">
        <path d="M67 0 L67 32 L128 32 L128 0 Z" />
      </clipPath>
      <clipPath clipPathUnits="userSpaceOnUse" id="clipPath53">
        <path d="M843 114 L843 939 L1093 939 L1093 114 Z" />
      </clipPath>
      <clipPath clipPathUnits="userSpaceOnUse" id="clipPath54">
        <path d="M958 282 L958 384 L978 384 L978 282 Z" />
      </clipPath>
      <clipPath clipPathUnits="userSpaceOnUse" id="clipPath55">
        <path d="M958 481 L958 583 L978 583 L978 481 Z" />
      </clipPath>
      <clipPath clipPathUnits="userSpaceOnUse" id="clipPath56">
        <path d="M0 0 L0 32 L227 32 L227 0 Z" />
      </clipPath>
      <clipPath clipPathUnits="userSpaceOnUse" id="clipPath57">
        <path d="M227 0 L227 32 L232 32 L232 0 Z" />
      </clipPath>
      <clipPath clipPathUnits="userSpaceOnUse" id="clipPath58">
        <path d="M232 0 L232 32 L464 32 L464 0 Z" />
      </clipPath>
      <clipPath clipPathUnits="userSpaceOnUse" id="clipPath59">
        <path d="M1126 114 L1126 939 L1600 939 L1600 114 Z" />
      </clipPath>
      <clipPath clipPathUnits="userSpaceOnUse" id="clipPath60">
        <path d="M1353 402 L1353 426 L1373 426 L1373 402 Z" />
      </clipPath>
      <clipPath clipPathUnits="userSpaceOnUse" id="clipPath61">
        <path d="M0 0 L0 32 L118 32 L118 0 Z" />
      </clipPath>
      <clipPath clipPathUnits="userSpaceOnUse" id="clipPath62">
        <path d="M118 0 L118 32 L236 32 L236 0 Z" />
      </clipPath>
      <clipPath clipPathUnits="userSpaceOnUse" id="clipPath63">
        <path d="M1620 719 L1620 939 L1866 939 L1866 719 Z" />
      </clipPath>
      <clipPath clipPathUnits="userSpaceOnUse" id="clipPath64">
        <path d="M1733 719 L1733 743 L1753 743 L1753 719 Z" />
      </clipPath>
      <clipPath clipPathUnits="userSpaceOnUse" id="clipPath65">
        <path d="M1733 765 L1733 789 L1753 789 L1753 765 Z" />
      </clipPath>
      <clipPath clipPathUnits="userSpaceOnUse" id="clipPath66">
        <path d="M277 254 L277 274 L297 274 L297 254 Z" />
      </clipPath>
      <clipPath clipPathUnits="userSpaceOnUse" id="clipPath67">
        <path d="M0 0 L0 32 L89 32 L89 0 Z" />
      </clipPath>
      <clipPath clipPathUnits="userSpaceOnUse" id="clipPath68">
        <path d="M250 795 L250 837 L324 837 L324 795 Z" />
      </clipPath>
      <clipPath clipPathUnits="userSpaceOnUse" id="clipPath69">
        <path d="M0 0 L0 32 L64 32 L64 0 Z" />
      </clipPath>
      <clipPath clipPathUnits="userSpaceOnUse" id="clipPath70">
        <path d="M543 196 L543 216 L563 216 L563 196 Z" />
      </clipPath>
      <clipPath clipPathUnits="userSpaceOnUse" id="clipPath71">
        <path d="M721 238 L721 258 L741 258 L741 238 Z" />
      </clipPath>
      <clipPath clipPathUnits="userSpaceOnUse" id="clipPath72">
        <path d="M958 374 L958 394 L978 394 L978 374 Z" />
      </clipPath>
      <clipPath clipPathUnits="userSpaceOnUse" id="clipPath73">
        <path d="M0 0 L0 32 L241 32 L241 0 Z" />
      </clipPath>
      <clipPath clipPathUnits="userSpaceOnUse" id="clipPath74">
        <path d="M834 301 L834 335 L878 335 L878 301 Z" />
      </clipPath>
      <clipPath clipPathUnits="userSpaceOnUse" id="clipPath75">
        <path d="M0 0 L0 32 L34 32 L34 0 Z" />
      </clipPath>
      <clipPath clipPathUnits="userSpaceOnUse" id="clipPath76">
        <path d="M834 500 L834 534 L878 534 L878 500 Z" />
      </clipPath>
      <clipPath clipPathUnits="userSpaceOnUse" id="clipPath77">
        <path d="M229 620 L229 654 L512 654 L512 620 Z" />
      </clipPath>
      <clipPath clipPathUnits="userSpaceOnUse" id="clipPath78">
        <path d="M0 0 L0 32 L29 32 L29 0 Z" />
      </clipPath>
      <clipPath clipPathUnits="userSpaceOnUse" id="clipPath79">
        <path d="M0 0 L0 32 L239 32 L239 0 Z" />
      </clipPath>
      <clipPath clipPathUnits="userSpaceOnUse" id="clipPath80">
        <path d="M965 297 L965 304 L972 304 L972 297 Z" />
      </clipPath>
      <clipPath clipPathUnits="userSpaceOnUse" id="clipPath81">
        <path d="M965 496 L965 503 L972 503 L972 496 Z" />
      </clipPath>
      <clipPath clipPathUnits="userSpaceOnUse" id="clipPath82">
        <path d="M284 616 L284 623 L291 623 L291 616 Z" />
      </clipPath>
      <clipPath clipPathUnits="userSpaceOnUse" id="clipPath83">
        <path d="M529 179 L529 186 L544 186 L544 179 Z" />
      </clipPath>
      <clipPath clipPathUnits="userSpaceOnUse" id="clipPath84">
        <path d="M0 0 L0 32 L58 32 L58 0 Z" />
      </clipPath>
      <clipPath clipPathUnits="userSpaceOnUse" id="clipPath85">
        <path d="M0 0 L0 32 L14 32 L14 0 Z" />
      </clipPath>
      <clipPath clipPathUnits="userSpaceOnUse" id="clipPath86">
        <path d="M707 221 L707 228 L722 228 L722 221 Z" />
      </clipPath>
      <clipPath clipPathUnits="userSpaceOnUse" id="clipPath87">
        <path d="M944 279 L944 286 L959 286 L959 279 Z" />
      </clipPath>
      <clipPath clipPathUnits="userSpaceOnUse" id="clipPath88">
        <path d="M0 0 L0 32 L40 32 L40 0 Z" />
      </clipPath>
      <clipPath clipPathUnits="userSpaceOnUse" id="clipPath89">
        <path d="M0 0 L0 32 L78 32 L78 0 Z" />
      </clipPath>
      <clipPath clipPathUnits="userSpaceOnUse" id="clipPath90">
        <path d="M78 0 L78 32 L92 32 L92 0 Z" />
      </clipPath>
      <clipPath clipPathUnits="userSpaceOnUse" id="clipPath91">
        <path d="M90 452 L90 459 L105 459 L105 452 Z" />
      </clipPath>
      <clipPath clipPathUnits="userSpaceOnUse" id="clipPath92">
        <path d="M0 0 L0 32 L169 32 L169 0 Z" />
      </clipPath>
      <clipPath clipPathUnits="userSpaceOnUse" id="clipPath93">
        <path d="M169 0 L169 32 L473 32 L473 0 Z" />
      </clipPath>
      <clipPath clipPathUnits="userSpaceOnUse" id="clipPath94">
        <path d="M263 153 L263 160 L278 160 L278 153 Z" />
      </clipPath>
      <clipPath clipPathUnits="userSpaceOnUse" id="clipPath95">
        <path d="M0 0 L0 32 L175 32 L175 0 Z" />
      </clipPath>
      <clipPath clipPathUnits="userSpaceOnUse" id="clipPath96">
        <path d="M175 0 L175 32 L189 32 L189 0 Z" />
      </clipPath>
      <clipPath clipPathUnits="userSpaceOnUse" id="clipPath97">
        <path d="M1339 399 L1339 406 L1354 406 L1354 399 Z" />
      </clipPath>
      <clipPath clipPathUnits="userSpaceOnUse" id="clipPath98">
        <path d="M0 0 L0 32 L167 32 L167 0 Z" />
      </clipPath>
      <clipPath clipPathUnits="userSpaceOnUse" id="clipPath99">
        <path d="M167 0 L167 32 L232 32 L232 0 Z" />
      </clipPath>
      <clipPath clipPathUnits="userSpaceOnUse" id="clipPath100">
        <path d="M1608 686 L1608 693 L1621 693 L1621 686 Z" />
      </clipPath>
      <clipPath clipPathUnits="userSpaceOnUse" id="clipPath101">
        <path d="M0 0 L0 32 L76 32 L76 0 Z" />
      </clipPath>
      <clipPath clipPathUnits="userSpaceOnUse" id="clipPath102">
        <path d="M118 0 L118 32 L421 32 L421 0 Z" />
      </clipPath>
      <clipPath clipPathUnits="userSpaceOnUse" id="clipPath103">
        <path d="M1719 762 L1719 769 L1734 769 L1734 762 Z" />
      </clipPath>
      <clipPath clipPathUnits="userSpaceOnUse" id="clipPath104">
        <path d="M0 0 L0 32 L114 32 L114 0 Z" />
      </clipPath>
      <clipPath clipPathUnits="userSpaceOnUse" id="clipPath105">
        <path d="M944 478 L944 485 L959 485 L959 478 Z" />
      </clipPath>
      <clipPath clipPathUnits="userSpaceOnUse" id="clipPath106">
        <path d="M62 0 L62 32 L700 32 L700 0 Z" />
      </clipPath>
      <clipPath clipPathUnits="userSpaceOnUse" id="clipPath107">
        <path d="M263 598 L263 605 L278 605 L278 598 Z" />
      </clipPath>
      <clipPath clipPathUnits="userSpaceOnUse" id="clipPath108">
        <path d="M0 0 L0 32 L159 32 L159 0 Z" />
      </clipPath>
      <clipPath clipPathUnits="userSpaceOnUse" id="clipPath109">
        <path d="M159 0 L159 32 L306 32 L306 0 Z" />
      </clipPath>
      <clipPath clipPathUnits="userSpaceOnUse" id="clipPath110">
        <path d="M46 127 L46 134 L61 134 L61 127 Z" />
      </clipPath>
      <clipPath clipPathUnits="userSpaceOnUse" id="clipPath111">
        <path d="M0 0 L0 32 L22 32 L22 0 Z" />
      </clipPath>
      <clipPath clipPathUnits="userSpaceOnUse" id="clipPath112">
        <path d="M0 0 L0 32 L129 32 L129 0 Z" />
      </clipPath>
      <clipPath clipPathUnits="userSpaceOnUse" id="clipPath113">
        <path d="M129 0 L129 32 L194 32 L194 0 Z" />
      </clipPath>
    </defs>
    <g style="fill:white; stroke:white;">
      <rect x="0" y="0" width="2376" style="clip-path:url(#clipPath1); stroke:none;" height="962" />
      <rect x="0" y="0" width="2375" style="clip-path:url(#clipPath1); fill:none; stroke:blue;" height="961" />
      <rect x="10" y="10" width="1919" style="clip-path:url(#clipPath2); stroke:none;" height="939" />
    </g>
    <g style="font-family:&apos;Segoe UI&apos;; font-size:24;">
      <rect x="10" y="10" width="1918" style="clip-path:url(#clipPath2); fill:none;" height="938" />
      <polygon style="fill:white; clip-path:url(#clipPath3); stroke:none;" points=" 10 10 305 10 305 38 300 43 10 43 10 10" />
      <polygon style="fill:none; clip-path:url(#clipPath3);" points=" 10 10 305 10 305 38 300 43 10 43 10 10" />
      <text x="0" y="26" transform="translate(15,10)" style="clip-path:url(#clipPath4); stroke:none; font-weight:bold;" xml:space="preserve">sd </text>
      <text x="0" y="26" transform="translate(48,10)" style="clip-path:url(#clipPath5); stroke:none;" xml:space="preserve">Controller.restartGame1</text>
      <rect x="833" y="300" width="270" style="clip-path:url(#clipPath6); fill:rgb(234,232,233); stroke:none;" height="66" />
      <rect x="833" y="320" width="270" style="clip-path:url(#clipPath7); fill:rgb(234,232,233); stroke:none;" height="46" />
      <rect x="833" y="499" width="270" style="clip-path:url(#clipPath8); fill:rgb(244,244,230); stroke:none;" height="66" />
      <rect x="833" y="519" width="270" style="clip-path:url(#clipPath9); fill:rgb(244,244,230); stroke:none;" height="46" />
      <rect x="228" y="619" width="1648" style="clip-path:url(#clipPath10); fill:rgb(230,246,247); stroke:none;" height="230" />
      <rect x="228" y="639" width="1648" style="clip-path:url(#clipPath11); fill:rgb(230,246,247); stroke:none;" height="210" />
      <rect x="40" y="54" transform="translate(3,3)" width="60" style="clip-path:url(#clipPath12); fill:rgb(153,153,153); stroke:none;" height="60" />
      <rect x="40" y="54" transform="translate(3,3)" width="59" style="clip-path:url(#clipPath12); fill:none; stroke:rgb(153,153,153);" height="59" />
      <circle transform="translate(3,3)" style="clip-path:url(#clipPath13); fill:rgb(153,153,153); stroke:none;" r="4" cx="40" cy="130" />
      <rect x="120" y="54" transform="translate(3,3)" width="334" style="clip-path:url(#clipPath14); fill:rgb(153,153,153); stroke:none;" height="60" />
      <rect x="120" y="54" transform="translate(3,3)" width="333" style="clip-path:url(#clipPath14); fill:none; stroke:rgb(153,153,153);" height="59" />
      <rect x="474" y="54" transform="translate(3,3)" width="158" style="clip-path:url(#clipPath15); fill:rgb(153,153,153); stroke:none;" height="60" />
      <rect x="474" y="54" transform="translate(3,3)" width="157" style="clip-path:url(#clipPath15); fill:none; stroke:rgb(153,153,153);" height="59" />
      <rect x="652" y="54" transform="translate(3,3)" width="158" style="clip-path:url(#clipPath16); fill:rgb(153,153,153); stroke:none;" height="60" />
      <rect x="652" y="54" transform="translate(3,3)" width="157" style="clip-path:url(#clipPath16); fill:none; stroke:rgb(153,153,153);" height="59" />
      <rect x="899" y="54" transform="translate(3,3)" width="138" style="clip-path:url(#clipPath17); fill:rgb(153,153,153); stroke:none;" height="60" />
      <rect x="899" y="54" transform="translate(3,3)" width="137" style="clip-path:url(#clipPath17); fill:none; stroke:rgb(153,153,153);" height="59" />
      <rect x="1126" y="54" transform="translate(3,3)" width="474" style="clip-path:url(#clipPath18); fill:rgb(153,153,153); stroke:none;" height="60" />
      <rect x="1126" y="54" transform="translate(3,3)" width="473" style="clip-path:url(#clipPath18); fill:none; stroke:rgb(153,153,153);" height="59" />
      <rect x="1620" y="659" transform="translate(3,3)" width="246" style="clip-path:url(#clipPath19); fill:rgb(153,153,153); stroke:none;" height="60" />
      <rect x="1620" y="659" transform="translate(3,3)" width="245" style="clip-path:url(#clipPath19); fill:none; stroke:rgb(153,153,153);" height="59" />
      <rect x="40" y="54" width="60" style="clip-path:url(#clipPath12); fill:white; stroke:none;" height="60" />
      <rect x="40" y="54" width="59" style="clip-path:url(#clipPath12); fill:none;" height="59" />
      <text x="5" y="26" transform="translate(46,54)" style="clip-path:url(#clipPath20); stroke:none;" xml:space="preserve">self</text>
      <line x1="70" x2="70" y1="114" style="clip-path:url(#clipPath21); fill:none;" y2="939" />
      <rect x="60" y="130" width="20" style="clip-path:url(#clipPath22); fill:white; stroke:none;" height="783" />
      <rect x="60" y="130" width="19" style="clip-path:url(#clipPath22); fill:none;" height="782" />
      <rect x="62" y="156" width="17" style="clip-path:url(#clipPath23); fill:rgb(240,240,240); stroke:none;" height="108" />
      <rect x="62" y="282" width="17" style="clip-path:url(#clipPath24); fill:rgb(240,240,240); stroke:none;" height="102" />
      <rect x="62" y="402" width="17" style="clip-path:url(#clipPath25); fill:rgb(240,240,240); stroke:none;" height="24" />
      <rect x="62" y="444" width="17" style="clip-path:url(#clipPath26); fill:rgb(240,240,240); stroke:none;" height="453" />
      <rect x="70" y="455" width="20" style="clip-path:url(#clipPath27); fill:white; stroke:none;" height="428" />
      <rect x="70" y="455" width="19" style="clip-path:url(#clipPath27); fill:none;" height="427" />
      <rect x="72" y="481" width="17" style="clip-path:url(#clipPath28); fill:rgb(240,240,240); stroke:none;" height="102" />
      <rect x="72" y="601" width="17" style="clip-path:url(#clipPath29); fill:rgb(240,240,240); stroke:none;" height="266" />
      <circle style="clip-path:url(#clipPath13); stroke:none;" r="4" cx="40" cy="130" />
      <rect x="120" y="54" width="334" style="clip-path:url(#clipPath14); fill:white; stroke:none;" height="60" />
      <rect x="120" y="54" width="333" style="clip-path:url(#clipPath14); fill:none;" height="59" />
      <text x="0" y="26" transform="translate(125,54)" style="clip-path:url(#clipPath30); stroke:none;" xml:space="preserve">playerManager</text>
      <text x="160" y="26" transform="translate(125,54)" style="clip-path:url(#clipPath31); stroke:none;" xml:space="preserve">:</text>
      <text x="165" y="26" transform="translate(125,54)" style="clip-path:url(#clipPath32); stroke:none;" xml:space="preserve">PlayerManager</text>
      <line x1="287" x2="287" y1="114" style="clip-path:url(#clipPath33); fill:none;" y2="939" />
      <rect x="277" y="156" width="20" style="clip-path:url(#clipPath34); fill:white; stroke:none;" height="108" />
      <rect x="277" y="156" width="19" style="clip-path:url(#clipPath34); fill:none; stroke:red;" height="107" />
      <rect x="279" y="182" width="17" style="clip-path:url(#clipPath35); fill:rgb(240,240,240); stroke:none;" height="24" />
      <rect x="279" y="224" width="17" style="clip-path:url(#clipPath36); fill:rgb(240,240,240); stroke:none;" height="24" />
      <rect x="277" y="601" width="20" style="clip-path:url(#clipPath37); fill:white; stroke:none;" height="266" />
      <rect x="277" y="601" width="19" style="clip-path:url(#clipPath37); fill:none;" height="265" />
      <rect x="279" y="689" width="17" style="clip-path:url(#clipPath38); fill:rgb(240,240,240); stroke:none;" height="54" />
      <rect x="279" y="765" width="17" style="clip-path:url(#clipPath39); fill:rgb(240,240,240); stroke:none;" height="24" />
      <rect x="474" y="54" width="158" style="clip-path:url(#clipPath15); fill:white; stroke:none;" height="60" />
      <rect x="474" y="54" width="157" style="clip-path:url(#clipPath15); fill:none;" height="59" />
      <text x="0" y="26" transform="translate(479,54)" style="clip-path:url(#clipPath40); stroke:none;" xml:space="preserve">playerA</text>
      <text x="80" y="26" transform="translate(479,54)" style="clip-path:url(#clipPath41); stroke:none;" xml:space="preserve">:</text>
      <text x="85" y="26" transform="translate(479,54)" style="clip-path:url(#clipPath42); stroke:none;" xml:space="preserve">Player</text>
      <line x1="553" x2="553" y1="114" style="clip-path:url(#clipPath43); fill:none;" y2="206" />
      <rect x="543" y="182" width="20" style="clip-path:url(#clipPath44); fill:white; stroke:none;" height="24" />
      <rect x="543" y="182" width="19" style="clip-path:url(#clipPath44); fill:none;" height="23" />
      <rect x="652" y="54" width="158" style="clip-path:url(#clipPath16); fill:white; stroke:none;" height="60" />
      <rect x="652" y="54" width="157" style="clip-path:url(#clipPath16); fill:none;" height="59" />
      <text x="0" y="26" transform="translate(657,54)" style="clip-path:url(#clipPath45); stroke:none;" xml:space="preserve">playerB</text>
      <text x="79" y="26" transform="translate(657,54)" style="clip-path:url(#clipPath46); stroke:none;" xml:space="preserve">:</text>
      <text x="84" y="26" transform="translate(657,54)" style="clip-path:url(#clipPath47); stroke:none;" xml:space="preserve">Player</text>
      <line x1="731" x2="731" y1="114" style="clip-path:url(#clipPath48); fill:none;" y2="248" />
      <rect x="721" y="224" width="20" style="clip-path:url(#clipPath49); fill:white; stroke:none;" height="24" />
      <rect x="721" y="224" width="19" style="clip-path:url(#clipPath49); fill:none;" height="23" />
      <rect x="899" y="54" width="138" style="clip-path:url(#clipPath17); fill:white; stroke:none;" height="60" />
      <rect x="899" y="54" width="137" style="clip-path:url(#clipPath17); fill:none;" height="59" />
      <text x="0" y="26" transform="translate(904,54)" style="clip-path:url(#clipPath50); stroke:none;" xml:space="preserve">board</text>
      <text x="62" y="26" transform="translate(904,54)" style="clip-path:url(#clipPath51); stroke:none;" xml:space="preserve">:</text>
      <text x="67" y="26" transform="translate(904,54)" style="clip-path:url(#clipPath52); stroke:none;" xml:space="preserve">Board</text>
      <line x1="968" x2="968" y1="114" style="clip-path:url(#clipPath53); fill:none;" y2="939" />
      <rect x="958" y="282" width="20" style="clip-path:url(#clipPath54); fill:white; stroke:none;" height="102" />
      <rect x="958" y="282" width="19" style="clip-path:url(#clipPath54); fill:none; stroke:red;" height="101" />
      <rect x="958" y="481" width="20" style="clip-path:url(#clipPath55); fill:white; stroke:none;" height="102" />
      <rect x="958" y="481" width="19" style="clip-path:url(#clipPath55); fill:none;" height="101" />
      <rect x="1126" y="54" width="474" style="clip-path:url(#clipPath18); fill:white; stroke:none;" height="60" />
      <rect x="1126" y="54" width="473" style="clip-path:url(#clipPath18); fill:none;" height="59" />
      <text x="0" y="26" transform="translate(1131,54)" style="clip-path:url(#clipPath56); stroke:none;" xml:space="preserve">boardUpdateCallback</text>
      <text x="227" y="26" transform="translate(1131,54)" style="clip-path:url(#clipPath57); stroke:none;" xml:space="preserve">:</text>
      <text x="232" y="26" transform="translate(1131,54)" style="clip-path:url(#clipPath58); stroke:none;" xml:space="preserve">IBoardUpdateCallback</text>
      <line x1="1363" x2="1363" y1="114" style="clip-path:url(#clipPath59); fill:none;" y2="939" />
      <rect x="1353" y="402" width="20" style="clip-path:url(#clipPath60); fill:white; stroke:none;" height="24" />
      <rect x="1353" y="402" width="19" style="clip-path:url(#clipPath60); fill:none;" height="23" />
      <rect x="1620" y="659" width="246" style="clip-path:url(#clipPath19); fill:white; stroke:none;" height="60" />
      <rect x="1620" y="659" width="245" style="clip-path:url(#clipPath19); fill:none;" height="59" />
      <text x="0" y="26" transform="translate(1625,659)" style="clip-path:url(#clipPath61); stroke:none;" xml:space="preserve">localPlayer:</text>
      <text x="118" y="26" transform="translate(1625,659)" style="clip-path:url(#clipPath62); stroke:none;" xml:space="preserve">LocalPlayer</text>
      <line x1="1743" x2="1743" y1="719" style="clip-path:url(#clipPath63); fill:none;" y2="939" />
      <rect x="1733" y="718" width="20" style="clip-path:url(#clipPath64); fill:white; stroke:none;" height="25" />
      <rect x="1733" y="718" width="19" style="clip-path:url(#clipPath64); fill:none;" height="24" />
      <rect x="1733" y="765" width="20" style="clip-path:url(#clipPath65); fill:white; stroke:none;" height="24" />
      <rect x="1733" y="765" width="19" style="clip-path:url(#clipPath65); fill:none;" height="23" />
      <line x1="280" x2="294" y1="257" style="clip-path:url(#clipPath66); fill:none; stroke:red;" y2="271" />
      <line x1="280" x2="294" y1="271" style="clip-path:url(#clipPath66); fill:none; stroke:red;" y2="257" />
      <text x="0" y="26" transform="translate(243,641)" style="clip-path:url(#clipPath67); stroke:none;" xml:space="preserve">[default]</text>
      <rect x="250" y="795" width="74" style="clip-path:url(#clipPath68); fill:white; stroke:none;" height="42" />
      <rect x="250" y="795" width="73" style="clip-path:url(#clipPath68); fill:none;" height="41" />
      <text x="0" y="26" transform="translate(255,800)" style="clip-path:url(#clipPath69); stroke:none;" xml:space="preserve">break;</text>
      <line x1="546" x2="560" y1="199" style="clip-path:url(#clipPath70); fill:none;" y2="213" />
      <line x1="546" x2="560" y1="213" style="clip-path:url(#clipPath70); fill:none;" y2="199" />
      <line x1="724" x2="738" y1="241" style="clip-path:url(#clipPath71); fill:none;" y2="255" />
      <line x1="724" x2="738" y1="255" style="clip-path:url(#clipPath71); fill:none;" y2="241" />
      <line x1="961" x2="975" y1="377" style="clip-path:url(#clipPath72); fill:none; stroke:red;" y2="391" />
      <line x1="961" x2="975" y1="391" style="clip-path:url(#clipPath72); fill:none; stroke:red;" y2="377" />
      <text x="0" y="26" transform="translate(848,322)" style="clip-path:url(#clipPath73); stroke:none;" xml:space="preserve">[int i = 0;i &lt; width;i++]</text>
      <text x="0" y="26" transform="translate(848,521)" style="clip-path:url(#clipPath73); stroke:none;" xml:space="preserve">[int i = 0;i &lt; width;i++]</text>
      <rect x="834" y="301" width="268" style="clip-path:url(#clipPath6); fill:none;" height="64" />
      <polygon style="fill:white; clip-path:url(#clipPath74); stroke:none;" points=" 834 301 877 301 877 329 872 334 834 334 834 301" />
      <polygon style="fill:none; clip-path:url(#clipPath74);" points=" 834 301 877 301 877 329 872 334 834 334 834 301" />
      <text x="0" y="26" transform="translate(839,301)" style="clip-path:url(#clipPath75); stroke:none; font-weight:bold;" xml:space="preserve">for</text>
      <rect x="834" y="500" width="268" style="clip-path:url(#clipPath8); fill:none;" height="64" />
      <polygon style="fill:white; clip-path:url(#clipPath76); stroke:none;" points=" 834 500 877 500 877 528 872 533 834 533 834 500" />
      <polygon style="fill:none; clip-path:url(#clipPath76);" points=" 834 500 877 500 877 528 872 533 834 533 834 500" />
      <text x="0" y="26" transform="translate(839,500)" style="clip-path:url(#clipPath75); stroke:none; font-weight:bold;" xml:space="preserve">for</text>
      <rect x="229" y="620" width="1646" style="clip-path:url(#clipPath10); fill:none;" height="228" />
      <polygon style="fill:white; clip-path:url(#clipPath77); stroke:none;" points=" 229 620 511 620 511 648 506 653 229 653 229 620" />
      <polygon style="fill:none; clip-path:url(#clipPath77);" points=" 229 620 511 620 511 648 506 653 229 653 229 620" />
      <text x="0" y="26" transform="translate(234,620)" style="clip-path:url(#clipPath78); stroke:none; font-weight:bold;" xml:space="preserve">alt</text>
      <text x="0" y="26" transform="translate(268,620)" style="clip-path:url(#clipPath79); stroke:none;" xml:space="preserve">&lt;&lt;no text available&gt;&gt;</text>
      <path d="M968 300 L968 300" style="fill:none; clip-path:url(#clipPath1);" />
      <circle style="clip-path:url(#clipPath80); fill:rgb(64,64,64); stroke:none;" r="3" cx="968" cy="300" />
      <circle style="fill:none; clip-path:url(#clipPath80);" r="3" cx="968" cy="300" />
      <path d="M968 300 L968 300" style="fill:none; clip-path:url(#clipPath1);" />
      <circle style="clip-path:url(#clipPath80); fill:rgb(64,64,64); stroke:none;" r="3" cx="968" cy="300" />
      <circle style="fill:none; clip-path:url(#clipPath80);" r="3" cx="968" cy="300" />
      <path d="M968 499 L968 499" style="fill:none; clip-path:url(#clipPath1);" />
      <circle style="clip-path:url(#clipPath81); fill:rgb(64,64,64); stroke:none;" r="3" cx="968" cy="499" />
      <circle style="fill:none; clip-path:url(#clipPath81);" r="3" cx="968" cy="499" />
      <path d="M968 499 L968 499" style="fill:none; clip-path:url(#clipPath1);" />
      <circle style="clip-path:url(#clipPath81); fill:rgb(64,64,64); stroke:none;" r="3" cx="968" cy="499" />
      <circle style="fill:none; clip-path:url(#clipPath81);" r="3" cx="968" cy="499" />
      <path d="M287 619 L287 619" style="fill:none; clip-path:url(#clipPath1);" />
      <circle style="clip-path:url(#clipPath82); fill:rgb(64,64,64); stroke:none;" r="3" cx="287" cy="619" />
      <circle style="fill:none; clip-path:url(#clipPath82);" r="3" cx="287" cy="619" />
      <path d="M287 619 L287 619" style="fill:none; clip-path:url(#clipPath1);" />
      <circle style="clip-path:url(#clipPath82); fill:rgb(64,64,64); stroke:none;" r="3" cx="287" cy="619" />
      <circle style="fill:none; clip-path:url(#clipPath82);" r="3" cx="287" cy="619" />
      <path d="M297 182 L543 182" style="fill:none; clip-path:url(#clipPath1);" />
      <polygon style="clip-path:url(#clipPath83); stroke:none;" points=" 543 182 529 185 529 179" />
      <polygon style="fill:none; clip-path:url(#clipPath83);" points=" 543 182 529 185 529 179" />
      <text x="2" y="26" transform="translate(297,150)" style="clip-path:url(#clipPath84); stroke:none;" xml:space="preserve">1.1.1:</text>
      <text x="2" y="26" transform="translate(355,150)" style="clip-path:url(#clipPath85); stroke:none;" xml:space="preserve">*</text>
      <path d="M297 182 L543 182" style="fill:none; clip-path:url(#clipPath1);" />
      <polygon style="clip-path:url(#clipPath83); stroke:none;" points=" 543 182 529 185 529 179" />
      <polygon style="fill:none; clip-path:url(#clipPath83);" points=" 543 182 529 185 529 179" />
      <text x="2" y="26" transform="translate(297,150)" style="clip-path:url(#clipPath84); stroke:none;" xml:space="preserve">1.1.1:</text>
      <text x="2" y="26" transform="translate(355,150)" style="clip-path:url(#clipPath85); stroke:none;" xml:space="preserve">*</text>
      <path d="M297 224 L721 224" style="fill:none; clip-path:url(#clipPath1);" />
      <polygon style="clip-path:url(#clipPath86); stroke:none;" points=" 721 224 707 227 707 221" />
      <polygon style="fill:none; clip-path:url(#clipPath86);" points=" 721 224 707 227 707 221" />
      <text x="2" y="26" transform="translate(297,192)" style="clip-path:url(#clipPath84); stroke:none;" xml:space="preserve">1.1.2:</text>
      <text x="2" y="26" transform="translate(355,192)" style="clip-path:url(#clipPath85); stroke:none;" xml:space="preserve">*</text>
      <path d="M297 224 L721 224" style="fill:none; clip-path:url(#clipPath1);" />
      <polygon style="clip-path:url(#clipPath86); stroke:none;" points=" 721 224 707 227 707 221" />
      <polygon style="fill:none; clip-path:url(#clipPath86);" points=" 721 224 707 227 707 221" />
      <text x="2" y="26" transform="translate(297,192)" style="clip-path:url(#clipPath84); stroke:none;" xml:space="preserve">1.1.2:</text>
      <text x="2" y="26" transform="translate(355,192)" style="clip-path:url(#clipPath85); stroke:none;" xml:space="preserve">*</text>
      <path d="M80 282 L958 282" style="fill:none; clip-path:url(#clipPath1);" />
      <polygon style="clip-path:url(#clipPath87); stroke:none;" points=" 958 282 944 285 944 279" />
      <polygon style="fill:none; clip-path:url(#clipPath87);" points=" 958 282 944 285 944 279" />
      <text x="2" y="26" transform="translate(80,250)" style="clip-path:url(#clipPath88); stroke:none;" xml:space="preserve">1.2:</text>
      <text x="0" y="26" transform="translate(122,250)" style="clip-path:url(#clipPath89); stroke:none;" xml:space="preserve">~Board</text>
      <text x="78" y="26" transform="translate(122,250)" style="clip-path:url(#clipPath90); stroke:none;" xml:space="preserve">()</text>
      <path d="M80 282 L958 282" style="fill:none; clip-path:url(#clipPath1);" />
      <polygon style="clip-path:url(#clipPath87); stroke:none;" points=" 958 282 944 285 944 279" />
      <polygon style="fill:none; clip-path:url(#clipPath87);" points=" 958 282 944 285 944 279" />
      <text x="2" y="26" transform="translate(80,250)" style="clip-path:url(#clipPath88); stroke:none;" xml:space="preserve">1.2:</text>
      <text x="0" y="26" transform="translate(122,250)" style="clip-path:url(#clipPath89); stroke:none;" xml:space="preserve">~Board</text>
      <text x="78" y="26" transform="translate(122,250)" style="clip-path:url(#clipPath90); stroke:none;" xml:space="preserve">()</text>
      <path d="M80 444 L107 444 L107 455 L90 455" style="fill:none; clip-path:url(#clipPath1);" />
      <polygon style="clip-path:url(#clipPath91); stroke:none;" points=" 90 455 104 452 104 458" />
      <polygon style="fill:none; clip-path:url(#clipPath91);" points=" 90 455 104 452 104 458" />
      <text x="2" y="26" transform="translate(80,412)" style="clip-path:url(#clipPath88); stroke:none;" xml:space="preserve">1.4:</text>
      <text x="0" y="26" transform="translate(122,412)" style="clip-path:url(#clipPath92); stroke:none;" xml:space="preserve">setupNewGame</text>
      <text x="169" y="26" transform="translate(122,412)" style="clip-path:url(#clipPath93); stroke:none;" xml:space="preserve">(&lt;&lt;no text available&gt;&gt;):void</text>
      <path d="M80 444 L107 444 L107 455 L90 455" style="fill:none; clip-path:url(#clipPath1);" />
      <polygon style="clip-path:url(#clipPath91); stroke:none;" points=" 90 455 104 452 104 458" />
      <polygon style="fill:none; clip-path:url(#clipPath91);" points=" 90 455 104 452 104 458" />
      <text x="2" y="26" transform="translate(80,412)" style="clip-path:url(#clipPath88); stroke:none;" xml:space="preserve">1.4:</text>
      <text x="0" y="26" transform="translate(122,412)" style="clip-path:url(#clipPath92); stroke:none;" xml:space="preserve">setupNewGame</text>
      <text x="169" y="26" transform="translate(122,412)" style="clip-path:url(#clipPath93); stroke:none;" xml:space="preserve">(&lt;&lt;no text available&gt;&gt;):void</text>
      <path d="M80 156 L277 156" style="fill:none; clip-path:url(#clipPath1);" />
      <polygon style="clip-path:url(#clipPath94); stroke:none;" points=" 277 156 263 159 263 153" />
      <polygon style="fill:none; clip-path:url(#clipPath94);" points=" 277 156 263 159 263 153" />
      <text x="2" y="26" transform="translate(80,124)" style="clip-path:url(#clipPath88); stroke:none;" xml:space="preserve">1.1:</text>
      <text x="0" y="26" transform="translate(122,124)" style="clip-path:url(#clipPath95); stroke:none;" xml:space="preserve">~PlayerManager</text>
      <text x="175" y="26" transform="translate(122,124)" style="clip-path:url(#clipPath96); stroke:none;" xml:space="preserve">()</text>
      <path d="M80 156 L277 156" style="fill:none; clip-path:url(#clipPath1);" />
      <polygon style="clip-path:url(#clipPath94); stroke:none;" points=" 277 156 263 159 263 153" />
      <polygon style="fill:none; clip-path:url(#clipPath94);" points=" 277 156 263 159 263 153" />
      <text x="2" y="26" transform="translate(80,124)" style="clip-path:url(#clipPath88); stroke:none;" xml:space="preserve">1.1:</text>
      <text x="0" y="26" transform="translate(122,124)" style="clip-path:url(#clipPath95); stroke:none;" xml:space="preserve">~PlayerManager</text>
      <text x="175" y="26" transform="translate(122,124)" style="clip-path:url(#clipPath96); stroke:none;" xml:space="preserve">()</text>
      <path d="M80 402 L1353 402" style="fill:none; clip-path:url(#clipPath1);" />
      <polygon style="clip-path:url(#clipPath97); stroke:none;" points=" 1353 402 1339 405 1339 399" />
      <polygon style="fill:none; clip-path:url(#clipPath97);" points=" 1353 402 1339 405 1339 399" />
      <text x="2" y="26" transform="translate(80,370)" style="clip-path:url(#clipPath88); stroke:none;" xml:space="preserve">1.3:</text>
      <text x="0" y="26" transform="translate(122,370)" style="clip-path:url(#clipPath98); stroke:none;" xml:space="preserve">onBoardUpdate</text>
      <text x="167" y="26" transform="translate(122,370)" style="clip-path:url(#clipPath99); stroke:none;" xml:space="preserve">():void</text>
      <path d="M80 402 L1353 402" style="fill:none; clip-path:url(#clipPath1);" />
      <polygon style="clip-path:url(#clipPath97); stroke:none;" points=" 1353 402 1339 405 1339 399" />
      <polygon style="fill:none; clip-path:url(#clipPath97);" points=" 1353 402 1339 405 1339 399" />
      <text x="2" y="26" transform="translate(80,370)" style="clip-path:url(#clipPath88); stroke:none;" xml:space="preserve">1.3:</text>
      <text x="0" y="26" transform="translate(122,370)" style="clip-path:url(#clipPath98); stroke:none;" xml:space="preserve">onBoardUpdate</text>
      <text x="167" y="26" transform="translate(122,370)" style="clip-path:url(#clipPath99); stroke:none;" xml:space="preserve">():void</text>
      <path d="M297 689 L1620 689" style="fill:none; clip-path:url(#clipPath1);" />
      <path d="M1608 692 L1620 689 L1608 686" style="fill:none; clip-path:url(#clipPath100);" />
      <text x="2" y="26" transform="translate(297,657)" style="clip-path:url(#clipPath101); stroke:none;" xml:space="preserve">1.4.2.1:</text>
      <text x="0" y="26" transform="translate(375,657)" style="clip-path:url(#clipPath61); stroke:none;" xml:space="preserve">LocalPlayer</text>
      <text x="118" y="26" transform="translate(375,657)" style="clip-path:url(#clipPath102); stroke:none;" xml:space="preserve">(this, &lt;&lt;no text available&gt;&gt;)</text>
      <path d="M297 689 L1620 689" style="fill:none; clip-path:url(#clipPath1);" />
      <path d="M1608 692 L1620 689 L1608 686" style="fill:none; clip-path:url(#clipPath100);" />
      <text x="2" y="26" transform="translate(297,657)" style="clip-path:url(#clipPath101); stroke:none;" xml:space="preserve">1.4.2.1:</text>
      <text x="0" y="26" transform="translate(375,657)" style="clip-path:url(#clipPath61); stroke:none;" xml:space="preserve">LocalPlayer</text>
      <text x="118" y="26" transform="translate(375,657)" style="clip-path:url(#clipPath102); stroke:none;" xml:space="preserve">(this, &lt;&lt;no text available&gt;&gt;)</text>
      <path d="M297 765 L1733 765" style="fill:none; clip-path:url(#clipPath1);" />
      <polygon style="clip-path:url(#clipPath103); stroke:none;" points=" 1733 765 1719 768 1719 762" />
      <polygon style="fill:none; clip-path:url(#clipPath103);" points=" 1733 765 1719 768 1719 762" />
      <text x="2" y="26" transform="translate(297,733)" style="clip-path:url(#clipPath101); stroke:none;" xml:space="preserve">1.4.2.2:</text>
      <text x="2" y="26" transform="translate(373,733)" style="clip-path:url(#clipPath104); stroke:none;" xml:space="preserve">«creation»</text>
      <text x="0" y="26" transform="translate(489,733)" style="clip-path:url(#clipPath61); stroke:none;" xml:space="preserve">LocalPlayer</text>
      <text x="118" y="26" transform="translate(489,733)" style="clip-path:url(#clipPath102); stroke:none;" xml:space="preserve">(this, &lt;&lt;no text available&gt;&gt;)</text>
      <path d="M297 765 L1733 765" style="fill:none; clip-path:url(#clipPath1);" />
      <polygon style="clip-path:url(#clipPath103); stroke:none;" points=" 1733 765 1719 768 1719 762" />
      <polygon style="fill:none; clip-path:url(#clipPath103);" points=" 1733 765 1719 768 1719 762" />
      <text x="2" y="26" transform="translate(297,733)" style="clip-path:url(#clipPath101); stroke:none;" xml:space="preserve">1.4.2.2:</text>
      <text x="2" y="26" transform="translate(373,733)" style="clip-path:url(#clipPath104); stroke:none;" xml:space="preserve">«creation»</text>
      <text x="0" y="26" transform="translate(489,733)" style="clip-path:url(#clipPath61); stroke:none;" xml:space="preserve">LocalPlayer</text>
      <text x="118" y="26" transform="translate(489,733)" style="clip-path:url(#clipPath102); stroke:none;" xml:space="preserve">(this, &lt;&lt;no text available&gt;&gt;)</text>
      <path d="M90 481 L958 481" style="fill:none; clip-path:url(#clipPath1);" />
      <polygon style="clip-path:url(#clipPath105); stroke:none;" points=" 958 481 944 484 944 478" />
      <polygon style="fill:none; clip-path:url(#clipPath105);" points=" 958 481 944 484 944 478" />
      <text x="2" y="26" transform="translate(90,449)" style="clip-path:url(#clipPath84); stroke:none;" xml:space="preserve">1.4.1:</text>
      <text x="2" y="26" transform="translate(148,449)" style="clip-path:url(#clipPath104); stroke:none;" xml:space="preserve">«creation»</text>
      <text x="0" y="26" transform="translate(264,449)" style="clip-path:url(#clipPath50); stroke:none;" xml:space="preserve">Board</text>
      <text x="62" y="26" transform="translate(264,449)" style="clip-path:url(#clipPath106); stroke:none;" xml:space="preserve">(settings.gridWidth, settings.gridHeight, settings.rowsToWin)</text>
      <path d="M90 481 L958 481" style="fill:none; clip-path:url(#clipPath1);" />
      <polygon style="clip-path:url(#clipPath105); stroke:none;" points=" 958 481 944 484 944 478" />
      <polygon style="fill:none; clip-path:url(#clipPath105);" points=" 958 481 944 484 944 478" />
      <text x="2" y="26" transform="translate(90,449)" style="clip-path:url(#clipPath84); stroke:none;" xml:space="preserve">1.4.1:</text>
      <text x="2" y="26" transform="translate(148,449)" style="clip-path:url(#clipPath104); stroke:none;" xml:space="preserve">«creation»</text>
      <text x="0" y="26" transform="translate(264,449)" style="clip-path:url(#clipPath50); stroke:none;" xml:space="preserve">Board</text>
      <text x="62" y="26" transform="translate(264,449)" style="clip-path:url(#clipPath106); stroke:none;" xml:space="preserve">(settings.gridWidth, settings.gridHeight, settings.rowsToWin)</text>
      <path d="M90 601 L277 601" style="fill:none; clip-path:url(#clipPath1);" />
      <polygon style="clip-path:url(#clipPath107); stroke:none;" points=" 277 601 263 604 263 598" />
      <polygon style="fill:none; clip-path:url(#clipPath107);" points=" 277 601 263 604 263 598" />
      <text x="2" y="26" transform="translate(90,569)" style="clip-path:url(#clipPath84); stroke:none;" xml:space="preserve">1.4.2:</text>
      <text x="2" y="26" transform="translate(148,569)" style="clip-path:url(#clipPath104); stroke:none;" xml:space="preserve">«creation»</text>
      <text x="0" y="26" transform="translate(264,569)" style="clip-path:url(#clipPath108); stroke:none;" xml:space="preserve">PlayerManager</text>
      <text x="159" y="26" transform="translate(264,569)" style="clip-path:url(#clipPath109); stroke:none;" xml:space="preserve">(this, settings)</text>
      <path d="M90 601 L277 601" style="fill:none; clip-path:url(#clipPath1);" />
      <polygon style="clip-path:url(#clipPath107); stroke:none;" points=" 277 601 263 604 263 598" />
      <polygon style="fill:none; clip-path:url(#clipPath107);" points=" 277 601 263 604 263 598" />
      <text x="2" y="26" transform="translate(90,569)" style="clip-path:url(#clipPath84); stroke:none;" xml:space="preserve">1.4.2:</text>
      <text x="2" y="26" transform="translate(148,569)" style="clip-path:url(#clipPath104); stroke:none;" xml:space="preserve">«creation»</text>
      <text x="0" y="26" transform="translate(264,569)" style="clip-path:url(#clipPath108); stroke:none;" xml:space="preserve">PlayerManager</text>
      <text x="159" y="26" transform="translate(264,569)" style="clip-path:url(#clipPath109); stroke:none;" xml:space="preserve">(this, settings)</text>
      <path d="M40 130 L60 130" style="fill:none; clip-path:url(#clipPath1);" />
      <polygon style="clip-path:url(#clipPath110); stroke:none;" points=" 60 130 46 133 46 127" />
      <polygon style="fill:none; clip-path:url(#clipPath110);" points=" 60 130 46 133 46 127" />
      <text x="2" y="26" transform="translate(40,98)" style="clip-path:url(#clipPath111); stroke:none;" xml:space="preserve">1:</text>
      <text x="0" y="26" transform="translate(64,98)" style="clip-path:url(#clipPath112); stroke:none;" xml:space="preserve">restartGame</text>
      <text x="129" y="26" transform="translate(64,98)" style="clip-path:url(#clipPath113); stroke:none;" xml:space="preserve">():void</text>
      <path d="M40 130 L60 130" style="fill:none; clip-path:url(#clipPath1);" />
      <polygon style="clip-path:url(#clipPath110); stroke:none;" points=" 60 130 46 133 46 127" />
      <polygon style="fill:none; clip-path:url(#clipPath110);" points=" 60 130 46 133 46 127" />
      <text x="2" y="26" transform="translate(40,98)" style="clip-path:url(#clipPath111); stroke:none;" xml:space="preserve">1:</text>
      <text x="0" y="26" transform="translate(64,98)" style="clip-path:url(#clipPath112); stroke:none;" xml:space="preserve">restartGame</text>
      <text x="129" y="26" transform="translate(64,98)" style="clip-path:url(#clipPath113); stroke:none;" xml:space="preserve">():void</text>
    </g>
  </g>
</svg>
