<?xml version="1.0" encoding="UTF-8"?>

<!DOCTYPE svg PUBLIC '-//W3C//DTD SVG 1.0//EN' 'http://www.w3.org/TR/2001/REC-SVG-20010904/DTD/svg10.dtd'>
<svg style="fill-opacity:1; color-rendering:auto; color-interpolation:auto; text-rendering:auto; stroke:black; stroke-linecap:square; stroke-miterlimit:10; shape-rendering:auto; stroke-opacity:1; fill:black; stroke-dasharray:none; font-weight:normal; stroke-width:1; font-family:&apos;Dialog&apos;; font-style:normal; stroke-linejoin:miter; font-size:12; stroke-dashoffset:0; image-rendering:auto;" xmlns="http://www.w3.org/2000/svg" width="2376" xmlns:xlink="http://www.w3.org/1999/xlink" height="878">
  <!--Generated by Selena using Batik-->
  <defs id="genericDefs" />
  <g>
    <defs id="defs1">
      <clipPath clipPathUnits="userSpaceOnUse" id="clipPath1">
        <path d="M0 0 L12000 0 L12000 12000 L0 12000 L0 0 Z" />
      </clipPath>
      <clipPath clipPathUnits="userSpaceOnUse" id="clipPath2">
        <path d="M10 10 L10 364 L349 364 L349 10 Z" />
      </clipPath>
      <clipPath clipPathUnits="userSpaceOnUse" id="clipPath3">
        <path d="M10 10 L10 44 L329 44 L329 10 Z" />
      </clipPath>
      <clipPath clipPathUnits="userSpaceOnUse" id="clipPath4">
        <path d="M0 0 L0 32 L33 32 L33 0 Z" />
      </clipPath>
      <clipPath clipPathUnits="userSpaceOnUse" id="clipPath5">
        <path d="M0 0 L0 32 L276 32 L276 0 Z" />
      </clipPath>
      <clipPath clipPathUnits="userSpaceOnUse" id="clipPath6">
        <path d="M40 54 L40 114 L100 114 L100 54 Z" />
      </clipPath>
      <clipPath clipPathUnits="userSpaceOnUse" id="clipPath7">
        <path d="M32 122 L32 138 L48 138 L48 122 Z" />
      </clipPath>
      <clipPath clipPathUnits="userSpaceOnUse" id="clipPath8">
        <path d="M0 0 L0 32 L47 32 L47 0 Z" />
      </clipPath>
      <clipPath clipPathUnits="userSpaceOnUse" id="clipPath9">
        <path d="M40 114 L40 354 L100 354 L100 114 Z" />
      </clipPath>
      <clipPath clipPathUnits="userSpaceOnUse" id="clipPath10">
        <path d="M60 130 L60 154 L80 154 L80 130 Z" />
      </clipPath>
      <clipPath clipPathUnits="userSpaceOnUse" id="clipPath11">
        <path d="M46 127 L46 134 L61 134 L61 127 Z" />
      </clipPath>
      <clipPath clipPathUnits="userSpaceOnUse" id="clipPath12">
        <path d="M0 0 L0 32 L22 32 L22 0 Z" />
      </clipPath>
      <clipPath clipPathUnits="userSpaceOnUse" id="clipPath13">
        <path d="M0 0 L0 32 L117 32 L117 0 Z" />
      </clipPath>
      <clipPath clipPathUnits="userSpaceOnUse" id="clipPath14">
        <path d="M117 0 L117 32 L182 32 L182 0 Z" />
      </clipPath>
    </defs>
    <g style="fill:white; stroke:white;">
      <rect x="0" y="0" width="2376" style="clip-path:url(#clipPath1); stroke:none;" height="878" />
      <rect x="0" y="0" width="2375" style="clip-path:url(#clipPath1); fill:none; stroke:blue;" height="877" />
      <rect x="10" y="10" width="339" style="clip-path:url(#clipPath2); stroke:none;" height="354" />
    </g>
    <g style="font-family:&apos;Segoe UI&apos;; font-size:24;">
      <rect x="10" y="10" width="338" style="clip-path:url(#clipPath2); fill:none;" height="353" />
      <polygon style="fill:white; clip-path:url(#clipPath3); stroke:none;" points=" 10 10 328 10 328 38 323 43 10 43 10 10" />
      <polygon style="fill:none; clip-path:url(#clipPath3);" points=" 10 10 328 10 328 38 323 43 10 43 10 10" />
      <text x="0" y="26" transform="translate(15,10)" style="clip-path:url(#clipPath4); stroke:none; font-weight:bold;" xml:space="preserve">sd </text>
      <text x="0" y="26" transform="translate(48,10)" style="clip-path:url(#clipPath5); stroke:none;" xml:space="preserve">MainWindow.exitProcess1</text>
      <rect x="40" y="54" transform="translate(3,3)" width="60" style="clip-path:url(#clipPath6); fill:rgb(153,153,153); stroke:none;" height="60" />
      <rect x="40" y="54" transform="translate(3,3)" width="59" style="clip-path:url(#clipPath6); fill:none; stroke:rgb(153,153,153);" height="59" />
      <circle transform="translate(3,3)" style="clip-path:url(#clipPath7); fill:rgb(153,153,153); stroke:none;" r="4" cx="40" cy="130" />
      <rect x="40" y="54" width="60" style="clip-path:url(#clipPath6); fill:white; stroke:none;" height="60" />
      <rect x="40" y="54" width="59" style="clip-path:url(#clipPath6); fill:none;" height="59" />
      <text x="5" y="26" transform="translate(46,54)" style="clip-path:url(#clipPath8); stroke:none;" xml:space="preserve">self</text>
      <line x1="70" x2="70" y1="114" style="clip-path:url(#clipPath9); fill:none;" y2="354" />
      <rect x="60" y="130" width="20" style="clip-path:url(#clipPath10); fill:white; stroke:none;" height="24" />
      <rect x="60" y="130" width="19" style="clip-path:url(#clipPath10); fill:none;" height="23" />
      <circle style="clip-path:url(#clipPath7); stroke:none;" r="4" cx="40" cy="130" />
      <path d="M40 130 L60 130" style="fill:none; clip-path:url(#clipPath1);" />
      <polygon style="clip-path:url(#clipPath11); stroke:none;" points=" 60 130 46 133 46 127" />
      <polygon style="fill:none; clip-path:url(#clipPath11);" points=" 60 130 46 133 46 127" />
      <text x="2" y="26" transform="translate(40,98)" style="clip-path:url(#clipPath12); stroke:none;" xml:space="preserve">1:</text>
      <text x="0" y="26" transform="translate(64,98)" style="clip-path:url(#clipPath13); stroke:none;" xml:space="preserve">exitProcess</text>
      <text x="117" y="26" transform="translate(64,98)" style="clip-path:url(#clipPath14); stroke:none;" xml:space="preserve">():void</text>
      <path d="M40 130 L60 130" style="fill:none; clip-path:url(#clipPath1);" />
      <polygon style="clip-path:url(#clipPath11); stroke:none;" points=" 60 130 46 133 46 127" />
      <polygon style="fill:none; clip-path:url(#clipPath11);" points=" 60 130 46 133 46 127" />
      <text x="2" y="26" transform="translate(40,98)" style="clip-path:url(#clipPath12); stroke:none;" xml:space="preserve">1:</text>
      <text x="0" y="26" transform="translate(64,98)" style="clip-path:url(#clipPath13); stroke:none;" xml:space="preserve">exitProcess</text>
      <text x="117" y="26" transform="translate(64,98)" style="clip-path:url(#clipPath14); stroke:none;" xml:space="preserve">():void</text>
    </g>
  </g>
</svg>
