<?xml version="1.0" encoding="UTF-8"?>

<!DOCTYPE svg PUBLIC '-//W3C//DTD SVG 1.0//EN' 'http://www.w3.org/TR/2001/REC-SVG-20010904/DTD/svg10.dtd'>
<svg style="fill-opacity:1; color-rendering:auto; color-interpolation:auto; text-rendering:auto; stroke:black; stroke-linecap:square; stroke-miterlimit:10; shape-rendering:auto; stroke-opacity:1; fill:black; stroke-dasharray:none; font-weight:normal; stroke-width:1; font-family:&apos;Dialog&apos;; font-style:normal; stroke-linejoin:miter; font-size:12; stroke-dashoffset:0; image-rendering:auto;" xmlns="http://www.w3.org/2000/svg" width="2376" xmlns:xlink="http://www.w3.org/1999/xlink" height="878">
  <!--Generated by Selena using Batik-->
  <defs id="genericDefs" />
  <g>
    <defs id="defs1">
      <clipPath clipPathUnits="userSpaceOnUse" id="clipPath1">
        <path d="M0 0 L12000 0 L12000 12000 L0 12000 L0 0 Z" />
      </clipPath>
      <clipPath clipPathUnits="userSpaceOnUse" id="clipPath2">
        <path d="M10 10 L10 433 L378 433 L378 10 Z" />
      </clipPath>
      <clipPath clipPathUnits="userSpaceOnUse" id="clipPath3">
        <path d="M10 10 L10 44 L293 44 L293 10 Z" />
      </clipPath>
      <clipPath clipPathUnits="userSpaceOnUse" id="clipPath4">
        <path d="M0 0 L0 32 L33 32 L33 0 Z" />
      </clipPath>
      <clipPath clipPathUnits="userSpaceOnUse" id="clipPath5">
        <path d="M0 0 L0 32 L240 32 L240 0 Z" />
      </clipPath>
      <clipPath clipPathUnits="userSpaceOnUse" id="clipPath6">
        <path d="M43 148 L43 379 L325 379 L325 148 Z" />
      </clipPath>
      <clipPath clipPathUnits="userSpaceOnUse" id="clipPath7">
        <path d="M43 168 L43 379 L325 379 L325 168 Z" />
      </clipPath>
      <clipPath clipPathUnits="userSpaceOnUse" id="clipPath8">
        <path d="M56 247 L56 333 L312 333 L312 247 Z" />
      </clipPath>
      <clipPath clipPathUnits="userSpaceOnUse" id="clipPath9">
        <path d="M56 267 L56 277 L312 277 L312 267 Z" />
      </clipPath>
      <clipPath clipPathUnits="userSpaceOnUse" id="clipPath10">
        <path d="M56 277 L56 333 L312 333 L312 277 Z" />
      </clipPath>
      <clipPath clipPathUnits="userSpaceOnUse" id="clipPath11">
        <path d="M144 54 L144 114 L204 114 L204 54 Z" />
      </clipPath>
      <clipPath clipPathUnits="userSpaceOnUse" id="clipPath12">
        <path d="M136 122 L136 138 L152 138 L152 122 Z" />
      </clipPath>
      <clipPath clipPathUnits="userSpaceOnUse" id="clipPath13">
        <path d="M0 0 L0 32 L47 32 L47 0 Z" />
      </clipPath>
      <clipPath clipPathUnits="userSpaceOnUse" id="clipPath14">
        <path d="M66 114 L66 423 L302 423 L302 114 Z" />
      </clipPath>
      <clipPath clipPathUnits="userSpaceOnUse" id="clipPath15">
        <path d="M164 130 L164 397 L194 397 L194 130 Z" />
      </clipPath>
      <clipPath clipPathUnits="userSpaceOnUse" id="clipPath16">
        <path d="M164 218 L164 365 L194 365 L194 218 Z" />
      </clipPath>
      <clipPath clipPathUnits="userSpaceOnUse" id="clipPath17">
        <path d="M174 229 L174 351 L194 351 L194 229 Z" />
      </clipPath>
      <clipPath clipPathUnits="userSpaceOnUse" id="clipPath18">
        <path d="M0 0 L0 32 L92 32 L92 0 Z" />
      </clipPath>
      <clipPath clipPathUnits="userSpaceOnUse" id="clipPath19">
        <path d="M0 0 L0 32 L227 32 L227 0 Z" />
      </clipPath>
      <clipPath clipPathUnits="userSpaceOnUse" id="clipPath20">
        <path d="M44 149 L44 183 L93 183 L93 149 Z" />
      </clipPath>
      <clipPath clipPathUnits="userSpaceOnUse" id="clipPath21">
        <path d="M0 0 L0 32 L39 32 L39 0 Z" />
      </clipPath>
      <clipPath clipPathUnits="userSpaceOnUse" id="clipPath22">
        <path d="M57 248 L57 282 L100 282 L100 248 Z" />
      </clipPath>
      <clipPath clipPathUnits="userSpaceOnUse" id="clipPath23">
        <path d="M171 145 L171 152 L178 152 L178 145 Z" />
      </clipPath>
      <clipPath clipPathUnits="userSpaceOnUse" id="clipPath24">
        <path d="M181 244 L181 251 L188 251 L188 244 Z" />
      </clipPath>
      <clipPath clipPathUnits="userSpaceOnUse" id="clipPath25">
        <path d="M194 226 L194 233 L209 233 L209 226 Z" />
      </clipPath>
      <clipPath clipPathUnits="userSpaceOnUse" id="clipPath26">
        <path d="M0 0 L0 32 L40 32 L40 0 Z" />
      </clipPath>
      <clipPath clipPathUnits="userSpaceOnUse" id="clipPath27">
        <path d="M0 0 L0 32 L199 32 L199 0 Z" />
      </clipPath>
      <clipPath clipPathUnits="userSpaceOnUse" id="clipPath28">
        <path d="M199 0 L199 32 L277 32 L277 0 Z" />
      </clipPath>
      <clipPath clipPathUnits="userSpaceOnUse" id="clipPath29">
        <path d="M150 127 L150 134 L165 134 L165 127 Z" />
      </clipPath>
      <clipPath clipPathUnits="userSpaceOnUse" id="clipPath30">
        <path d="M0 0 L0 32 L22 32 L22 0 Z" />
      </clipPath>
      <clipPath clipPathUnits="userSpaceOnUse" id="clipPath31">
        <path d="M0 0 L0 32 L76 32 L76 0 Z" />
      </clipPath>
      <clipPath clipPathUnits="userSpaceOnUse" id="clipPath32">
        <path d="M76 0 L76 32 L287 32 L287 0 Z" />
      </clipPath>
    </defs>
    <g style="fill:white; stroke:white;">
      <rect x="0" y="0" width="2376" style="clip-path:url(#clipPath1); stroke:none;" height="878" />
      <rect x="0" y="0" width="2375" style="clip-path:url(#clipPath1); fill:none; stroke:blue;" height="877" />
      <rect x="10" y="10" width="368" style="clip-path:url(#clipPath2); stroke:none;" height="423" />
    </g>
    <g style="font-family:&apos;Segoe UI&apos;; font-size:24;">
      <rect x="10" y="10" width="367" style="clip-path:url(#clipPath2); fill:none;" height="422" />
      <polygon style="fill:white; clip-path:url(#clipPath3); stroke:none;" points=" 10 10 292 10 292 38 287 43 10 43 10 10" />
      <polygon style="fill:none; clip-path:url(#clipPath3);" points=" 10 10 292 10 292 38 287 43 10 43 10 10" />
      <text x="0" y="26" transform="translate(15,10)" style="clip-path:url(#clipPath4); stroke:none; font-weight:bold;" xml:space="preserve">sd </text>
      <text x="0" y="26" transform="translate(48,10)" style="clip-path:url(#clipPath5); stroke:none;" xml:space="preserve">RemotePlayer.recieve1</text>
      <rect x="43" y="148" width="282" style="clip-path:url(#clipPath6); fill:rgb(245,232,248); stroke:none;" height="231" />
      <rect x="43" y="168" width="282" style="clip-path:url(#clipPath7); fill:rgb(245,232,248); stroke:none;" height="211" />
      <rect x="56" y="247" width="256" style="clip-path:url(#clipPath8); fill:rgb(243,236,242); stroke:none;" height="86" />
      <rect x="56" y="267" width="256" style="clip-path:url(#clipPath9); fill:rgb(243,236,242); stroke:none;" height="10" />
      <rect x="56" y="277" width="256" style="clip-path:url(#clipPath10); fill:rgb(243,236,242); stroke:none;" height="56" />
      <rect x="144" y="54" transform="translate(3,3)" width="60" style="clip-path:url(#clipPath11); fill:rgb(153,153,153); stroke:none;" height="60" />
      <rect x="144" y="54" transform="translate(3,3)" width="59" style="clip-path:url(#clipPath11); fill:none; stroke:rgb(153,153,153);" height="59" />
      <circle transform="translate(3,3)" style="clip-path:url(#clipPath12); fill:rgb(153,153,153); stroke:none;" r="4" cx="144" cy="130" />
      <rect x="144" y="54" width="60" style="clip-path:url(#clipPath11); fill:white; stroke:none;" height="60" />
      <rect x="144" y="54" width="59" style="clip-path:url(#clipPath11); fill:none;" height="59" />
      <text x="5" y="26" transform="translate(150,54)" style="clip-path:url(#clipPath13); stroke:none;" xml:space="preserve">self</text>
      <line x1="174" x2="174" y1="114" style="clip-path:url(#clipPath14); fill:none;" y2="423" />
      <rect x="164" y="130" width="20" style="clip-path:url(#clipPath15); fill:white; stroke:none;" height="267" />
      <rect x="164" y="130" width="19" style="clip-path:url(#clipPath15); fill:none;" height="266" />
      <rect x="166" y="218" width="17" style="clip-path:url(#clipPath16); fill:rgb(240,240,240); stroke:none;" height="147" />
      <rect x="174" y="229" width="20" style="clip-path:url(#clipPath17); fill:white; stroke:none;" height="122" />
      <rect x="174" y="229" width="19" style="clip-path:url(#clipPath17); fill:none;" height="121" />
      <circle style="clip-path:url(#clipPath12); stroke:none;" r="4" cx="144" cy="130" />
      <text x="0" y="26" transform="translate(128,170)" style="clip-path:url(#clipPath18); stroke:none;" xml:space="preserve">[send(1)]</text>
      <text x="0" y="26" transform="translate(71,289)" style="clip-path:url(#clipPath19); stroke:none;" xml:space="preserve">[NetworkException e]</text>
      <rect x="44" y="149" width="280" style="clip-path:url(#clipPath6); fill:none;" height="229" />
      <polygon style="fill:white; clip-path:url(#clipPath20); stroke:none;" points=" 44 149 92 149 92 177 87 182 44 182 44 149" />
      <polygon style="fill:none; clip-path:url(#clipPath20);" points=" 44 149 92 149 92 177 87 182 44 182 44 149" />
      <text x="0" y="26" transform="translate(49,149)" style="clip-path:url(#clipPath21); stroke:none; font-weight:bold;" xml:space="preserve">opt</text>
      <rect x="57" y="248" width="254" style="clip-path:url(#clipPath8); fill:none;" height="84" />
      <polygon style="fill:white; clip-path:url(#clipPath22); stroke:none;" points=" 57 248 99 248 99 276 94 281 57 281 57 248" />
      <polygon style="fill:none; clip-path:url(#clipPath22);" points=" 57 248 99 248 99 276 94 281 57 281 57 248" />
      <text x="0" y="26" transform="translate(62,248)" style="clip-path:url(#clipPath4); stroke:none; font-weight:bold;" xml:space="preserve">try</text>
      <line x1="56" x2="312" y1="277" style="clip-path:url(#clipPath10); fill:none;" y2="277" />
      <path d="M174 148 L174 148" style="fill:none; clip-path:url(#clipPath1);" />
      <circle style="clip-path:url(#clipPath23); fill:rgb(64,64,64); stroke:none;" r="3" cx="174" cy="148" />
      <circle style="fill:none; clip-path:url(#clipPath23);" r="3" cx="174" cy="148" />
      <path d="M174 148 L174 148" style="fill:none; clip-path:url(#clipPath1);" />
      <circle style="clip-path:url(#clipPath23); fill:rgb(64,64,64); stroke:none;" r="3" cx="174" cy="148" />
      <circle style="fill:none; clip-path:url(#clipPath23);" r="3" cx="174" cy="148" />
      <path d="M184 247 L184 247" style="fill:none; clip-path:url(#clipPath1);" />
      <circle style="clip-path:url(#clipPath24); fill:rgb(64,64,64); stroke:none;" r="3" cx="184" cy="247" />
      <circle style="fill:none; clip-path:url(#clipPath24);" r="3" cx="184" cy="247" />
      <path d="M184 247 L184 247" style="fill:none; clip-path:url(#clipPath1);" />
      <circle style="clip-path:url(#clipPath24); fill:rgb(64,64,64); stroke:none;" r="3" cx="184" cy="247" />
      <circle style="fill:none; clip-path:url(#clipPath24);" r="3" cx="184" cy="247" />
      <path d="M184 218 L211 218 L211 229 L194 229" style="fill:none; clip-path:url(#clipPath1);" />
      <polygon style="clip-path:url(#clipPath25); stroke:none;" points=" 194 229 208 226 208 232" />
      <polygon style="fill:none; clip-path:url(#clipPath25);" points=" 194 229 208 226 208 232" />
      <text x="2" y="26" transform="translate(184,186)" style="clip-path:url(#clipPath26); stroke:none;" xml:space="preserve">1.1:</text>
      <text x="0" y="26" transform="translate(226,186)" style="clip-path:url(#clipPath27); stroke:none;" xml:space="preserve">sendToConnection</text>
      <text x="199" y="26" transform="translate(226,186)" style="clip-path:url(#clipPath28); stroke:none;" xml:space="preserve">(1):void</text>
      <path d="M184 218 L211 218 L211 229 L194 229" style="fill:none; clip-path:url(#clipPath1);" />
      <polygon style="clip-path:url(#clipPath25); stroke:none;" points=" 194 229 208 226 208 232" />
      <polygon style="fill:none; clip-path:url(#clipPath25);" points=" 194 229 208 226 208 232" />
      <text x="2" y="26" transform="translate(184,186)" style="clip-path:url(#clipPath26); stroke:none;" xml:space="preserve">1.1:</text>
      <text x="0" y="26" transform="translate(226,186)" style="clip-path:url(#clipPath27); stroke:none;" xml:space="preserve">sendToConnection</text>
      <text x="199" y="26" transform="translate(226,186)" style="clip-path:url(#clipPath28); stroke:none;" xml:space="preserve">(1):void</text>
      <path d="M144 130 L164 130" style="fill:none; clip-path:url(#clipPath1);" />
      <polygon style="clip-path:url(#clipPath29); stroke:none;" points=" 164 130 150 133 150 127" />
      <polygon style="fill:none; clip-path:url(#clipPath29);" points=" 164 130 150 133 150 127" />
      <text x="2" y="26" transform="translate(144,98)" style="clip-path:url(#clipPath30); stroke:none;" xml:space="preserve">1:</text>
      <text x="0" y="26" transform="translate(168,98)" style="clip-path:url(#clipPath31); stroke:none;" xml:space="preserve">recieve</text>
      <text x="76" y="26" transform="translate(168,98)" style="clip-path:url(#clipPath32); stroke:none;" xml:space="preserve">(in position:int):void</text>
      <path d="M144 130 L164 130" style="fill:none; clip-path:url(#clipPath1);" />
      <polygon style="clip-path:url(#clipPath29); stroke:none;" points=" 164 130 150 133 150 127" />
      <polygon style="fill:none; clip-path:url(#clipPath29);" points=" 164 130 150 133 150 127" />
      <text x="2" y="26" transform="translate(144,98)" style="clip-path:url(#clipPath30); stroke:none;" xml:space="preserve">1:</text>
      <text x="0" y="26" transform="translate(168,98)" style="clip-path:url(#clipPath31); stroke:none;" xml:space="preserve">recieve</text>
      <text x="76" y="26" transform="translate(168,98)" style="clip-path:url(#clipPath32); stroke:none;" xml:space="preserve">(in position:int):void</text>
    </g>
  </g>
</svg>
