<?xml version="1.0" encoding="UTF-8"?>

<!DOCTYPE svg PUBLIC '-//W3C//DTD SVG 1.0//EN' 'http://www.w3.org/TR/2001/REC-SVG-20010904/DTD/svg10.dtd'>
<svg style="fill-opacity:1; color-rendering:auto; color-interpolation:auto; text-rendering:auto; stroke:black; stroke-linecap:square; stroke-miterlimit:10; shape-rendering:auto; stroke-opacity:1; fill:black; stroke-dasharray:none; font-weight:normal; stroke-width:1; font-family:&apos;Dialog&apos;; font-style:normal; stroke-linejoin:miter; font-size:12; stroke-dashoffset:0; image-rendering:auto;" xmlns="http://www.w3.org/2000/svg" width="2376" xmlns:xlink="http://www.w3.org/1999/xlink" height="878">
  <!--Generated by Selena using Batik-->
  <defs id="genericDefs" />
  <g>
    <defs id="defs1">
      <clipPath clipPathUnits="userSpaceOnUse" id="clipPath1">
        <path d="M0 0 L12000 0 L12000 12000 L0 12000 L0 0 Z" />
      </clipPath>
      <clipPath clipPathUnits="userSpaceOnUse" id="clipPath2">
        <path d="M10 10 L10 436 L1156 436 L1156 10 Z" />
      </clipPath>
      <clipPath clipPathUnits="userSpaceOnUse" id="clipPath3">
        <path d="M10 10 L10 44 L277 44 L277 10 Z" />
      </clipPath>
      <clipPath clipPathUnits="userSpaceOnUse" id="clipPath4">
        <path d="M0 0 L0 32 L33 32 L33 0 Z" />
      </clipPath>
      <clipPath clipPathUnits="userSpaceOnUse" id="clipPath5">
        <path d="M0 0 L0 32 L224 32 L224 0 Z" />
      </clipPath>
      <clipPath clipPathUnits="userSpaceOnUse" id="clipPath6">
        <path d="M833 300 L833 366 L1103 366 L1103 300 Z" />
      </clipPath>
      <clipPath clipPathUnits="userSpaceOnUse" id="clipPath7">
        <path d="M833 320 L833 366 L1103 366 L1103 320 Z" />
      </clipPath>
      <clipPath clipPathUnits="userSpaceOnUse" id="clipPath8">
        <path d="M40 54 L40 114 L100 114 L100 54 Z" />
      </clipPath>
      <clipPath clipPathUnits="userSpaceOnUse" id="clipPath9">
        <path d="M32 122 L32 138 L48 138 L48 122 Z" />
      </clipPath>
      <clipPath clipPathUnits="userSpaceOnUse" id="clipPath10">
        <path d="M120 54 L120 114 L454 114 L454 54 Z" />
      </clipPath>
      <clipPath clipPathUnits="userSpaceOnUse" id="clipPath11">
        <path d="M474 54 L474 114 L632 114 L632 54 Z" />
      </clipPath>
      <clipPath clipPathUnits="userSpaceOnUse" id="clipPath12">
        <path d="M652 54 L652 114 L810 114 L810 54 Z" />
      </clipPath>
      <clipPath clipPathUnits="userSpaceOnUse" id="clipPath13">
        <path d="M899 54 L899 114 L1037 114 L1037 54 Z" />
      </clipPath>
      <clipPath clipPathUnits="userSpaceOnUse" id="clipPath14">
        <path d="M0 0 L0 32 L47 32 L47 0 Z" />
      </clipPath>
      <clipPath clipPathUnits="userSpaceOnUse" id="clipPath15">
        <path d="M40 114 L40 426 L100 426 L100 114 Z" />
      </clipPath>
      <clipPath clipPathUnits="userSpaceOnUse" id="clipPath16">
        <path d="M60 130 L60 400 L80 400 L80 130 Z" />
      </clipPath>
      <clipPath clipPathUnits="userSpaceOnUse" id="clipPath17">
        <path d="M60 156 L60 264 L80 264 L80 156 Z" />
      </clipPath>
      <clipPath clipPathUnits="userSpaceOnUse" id="clipPath18">
        <path d="M60 282 L60 384 L80 384 L80 282 Z" />
      </clipPath>
      <clipPath clipPathUnits="userSpaceOnUse" id="clipPath19">
        <path d="M0 0 L0 32 L160 32 L160 0 Z" />
      </clipPath>
      <clipPath clipPathUnits="userSpaceOnUse" id="clipPath20">
        <path d="M160 0 L160 32 L165 32 L165 0 Z" />
      </clipPath>
      <clipPath clipPathUnits="userSpaceOnUse" id="clipPath21">
        <path d="M165 0 L165 32 L324 32 L324 0 Z" />
      </clipPath>
      <clipPath clipPathUnits="userSpaceOnUse" id="clipPath22">
        <path d="M120 114 L120 264 L454 264 L454 114 Z" />
      </clipPath>
      <clipPath clipPathUnits="userSpaceOnUse" id="clipPath23">
        <path d="M277 156 L277 264 L297 264 L297 156 Z" />
      </clipPath>
      <clipPath clipPathUnits="userSpaceOnUse" id="clipPath24">
        <path d="M277 182 L277 206 L297 206 L297 182 Z" />
      </clipPath>
      <clipPath clipPathUnits="userSpaceOnUse" id="clipPath25">
        <path d="M277 224 L277 248 L297 248 L297 224 Z" />
      </clipPath>
      <clipPath clipPathUnits="userSpaceOnUse" id="clipPath26">
        <path d="M0 0 L0 32 L80 32 L80 0 Z" />
      </clipPath>
      <clipPath clipPathUnits="userSpaceOnUse" id="clipPath27">
        <path d="M80 0 L80 32 L85 32 L85 0 Z" />
      </clipPath>
      <clipPath clipPathUnits="userSpaceOnUse" id="clipPath28">
        <path d="M85 0 L85 32 L148 32 L148 0 Z" />
      </clipPath>
      <clipPath clipPathUnits="userSpaceOnUse" id="clipPath29">
        <path d="M474 114 L474 206 L632 206 L632 114 Z" />
      </clipPath>
      <clipPath clipPathUnits="userSpaceOnUse" id="clipPath30">
        <path d="M543 182 L543 206 L563 206 L563 182 Z" />
      </clipPath>
      <clipPath clipPathUnits="userSpaceOnUse" id="clipPath31">
        <path d="M0 0 L0 32 L79 32 L79 0 Z" />
      </clipPath>
      <clipPath clipPathUnits="userSpaceOnUse" id="clipPath32">
        <path d="M79 0 L79 32 L84 32 L84 0 Z" />
      </clipPath>
      <clipPath clipPathUnits="userSpaceOnUse" id="clipPath33">
        <path d="M84 0 L84 32 L148 32 L148 0 Z" />
      </clipPath>
      <clipPath clipPathUnits="userSpaceOnUse" id="clipPath34">
        <path d="M652 114 L652 248 L810 248 L810 114 Z" />
      </clipPath>
      <clipPath clipPathUnits="userSpaceOnUse" id="clipPath35">
        <path d="M721 224 L721 248 L741 248 L741 224 Z" />
      </clipPath>
      <clipPath clipPathUnits="userSpaceOnUse" id="clipPath36">
        <path d="M0 0 L0 32 L62 32 L62 0 Z" />
      </clipPath>
      <clipPath clipPathUnits="userSpaceOnUse" id="clipPath37">
        <path d="M62 0 L62 32 L67 32 L67 0 Z" />
      </clipPath>
      <clipPath clipPathUnits="userSpaceOnUse" id="clipPath38">
        <path d="M67 0 L67 32 L128 32 L128 0 Z" />
      </clipPath>
      <clipPath clipPathUnits="userSpaceOnUse" id="clipPath39">
        <path d="M843 114 L843 384 L1093 384 L1093 114 Z" />
      </clipPath>
      <clipPath clipPathUnits="userSpaceOnUse" id="clipPath40">
        <path d="M958 282 L958 384 L978 384 L978 282 Z" />
      </clipPath>
      <clipPath clipPathUnits="userSpaceOnUse" id="clipPath41">
        <path d="M277 254 L277 274 L297 274 L297 254 Z" />
      </clipPath>
      <clipPath clipPathUnits="userSpaceOnUse" id="clipPath42">
        <path d="M543 196 L543 216 L563 216 L563 196 Z" />
      </clipPath>
      <clipPath clipPathUnits="userSpaceOnUse" id="clipPath43">
        <path d="M721 238 L721 258 L741 258 L741 238 Z" />
      </clipPath>
      <clipPath clipPathUnits="userSpaceOnUse" id="clipPath44">
        <path d="M958 374 L958 394 L978 394 L978 374 Z" />
      </clipPath>
      <clipPath clipPathUnits="userSpaceOnUse" id="clipPath45">
        <path d="M0 0 L0 32 L241 32 L241 0 Z" />
      </clipPath>
      <clipPath clipPathUnits="userSpaceOnUse" id="clipPath46">
        <path d="M834 301 L834 335 L878 335 L878 301 Z" />
      </clipPath>
      <clipPath clipPathUnits="userSpaceOnUse" id="clipPath47">
        <path d="M0 0 L0 32 L34 32 L34 0 Z" />
      </clipPath>
      <clipPath clipPathUnits="userSpaceOnUse" id="clipPath48">
        <path d="M965 297 L965 304 L972 304 L972 297 Z" />
      </clipPath>
      <clipPath clipPathUnits="userSpaceOnUse" id="clipPath49">
        <path d="M944 279 L944 286 L959 286 L959 279 Z" />
      </clipPath>
      <clipPath clipPathUnits="userSpaceOnUse" id="clipPath50">
        <path d="M0 0 L0 32 L40 32 L40 0 Z" />
      </clipPath>
      <clipPath clipPathUnits="userSpaceOnUse" id="clipPath51">
        <path d="M0 0 L0 32 L78 32 L78 0 Z" />
      </clipPath>
      <clipPath clipPathUnits="userSpaceOnUse" id="clipPath52">
        <path d="M78 0 L78 32 L92 32 L92 0 Z" />
      </clipPath>
      <clipPath clipPathUnits="userSpaceOnUse" id="clipPath53">
        <path d="M263 153 L263 160 L278 160 L278 153 Z" />
      </clipPath>
      <clipPath clipPathUnits="userSpaceOnUse" id="clipPath54">
        <path d="M0 0 L0 32 L175 32 L175 0 Z" />
      </clipPath>
      <clipPath clipPathUnits="userSpaceOnUse" id="clipPath55">
        <path d="M175 0 L175 32 L189 32 L189 0 Z" />
      </clipPath>
      <clipPath clipPathUnits="userSpaceOnUse" id="clipPath56">
        <path d="M529 179 L529 186 L544 186 L544 179 Z" />
      </clipPath>
      <clipPath clipPathUnits="userSpaceOnUse" id="clipPath57">
        <path d="M0 0 L0 32 L58 32 L58 0 Z" />
      </clipPath>
      <clipPath clipPathUnits="userSpaceOnUse" id="clipPath58">
        <path d="M0 0 L0 32 L14 32 L14 0 Z" />
      </clipPath>
      <clipPath clipPathUnits="userSpaceOnUse" id="clipPath59">
        <path d="M707 221 L707 228 L722 228 L722 221 Z" />
      </clipPath>
      <clipPath clipPathUnits="userSpaceOnUse" id="clipPath60">
        <path d="M46 127 L46 134 L61 134 L61 127 Z" />
      </clipPath>
      <clipPath clipPathUnits="userSpaceOnUse" id="clipPath61">
        <path d="M0 0 L0 32 L22 32 L22 0 Z" />
      </clipPath>
      <clipPath clipPathUnits="userSpaceOnUse" id="clipPath62">
        <path d="M0 0 L0 32 L100 32 L100 0 Z" />
      </clipPath>
      <clipPath clipPathUnits="userSpaceOnUse" id="clipPath63">
        <path d="M100 0 L100 32 L165 32 L165 0 Z" />
      </clipPath>
    </defs>
    <g style="fill:white; stroke:white;">
      <rect x="0" y="0" width="2376" style="clip-path:url(#clipPath1); stroke:none;" height="878" />
      <rect x="0" y="0" width="2375" style="clip-path:url(#clipPath1); fill:none; stroke:blue;" height="877" />
      <rect x="10" y="10" width="1146" style="clip-path:url(#clipPath2); stroke:none;" height="426" />
    </g>
    <g style="font-family:&apos;Segoe UI&apos;; font-size:24;">
      <rect x="10" y="10" width="1145" style="clip-path:url(#clipPath2); fill:none;" height="425" />
      <polygon style="fill:white; clip-path:url(#clipPath3); stroke:none;" points=" 10 10 276 10 276 38 271 43 10 43 10 10" />
      <polygon style="fill:none; clip-path:url(#clipPath3);" points=" 10 10 276 10 276 38 271 43 10 43 10 10" />
      <text x="0" y="26" transform="translate(15,10)" style="clip-path:url(#clipPath4); stroke:none; font-weight:bold;" xml:space="preserve">sd </text>
      <text x="0" y="26" transform="translate(48,10)" style="clip-path:url(#clipPath5); stroke:none;" xml:space="preserve">Controller.exitGame1</text>
      <rect x="833" y="300" width="270" style="clip-path:url(#clipPath6); fill:rgb(245,243,234); stroke:none;" height="66" />
      <rect x="833" y="320" width="270" style="clip-path:url(#clipPath7); fill:rgb(245,243,234); stroke:none;" height="46" />
      <rect x="40" y="54" transform="translate(3,3)" width="60" style="clip-path:url(#clipPath8); fill:rgb(153,153,153); stroke:none;" height="60" />
      <rect x="40" y="54" transform="translate(3,3)" width="59" style="clip-path:url(#clipPath8); fill:none; stroke:rgb(153,153,153);" height="59" />
      <circle transform="translate(3,3)" style="clip-path:url(#clipPath9); fill:rgb(153,153,153); stroke:none;" r="4" cx="40" cy="130" />
      <rect x="120" y="54" transform="translate(3,3)" width="334" style="clip-path:url(#clipPath10); fill:rgb(153,153,153); stroke:none;" height="60" />
      <rect x="120" y="54" transform="translate(3,3)" width="333" style="clip-path:url(#clipPath10); fill:none; stroke:rgb(153,153,153);" height="59" />
      <rect x="474" y="54" transform="translate(3,3)" width="158" style="clip-path:url(#clipPath11); fill:rgb(153,153,153); stroke:none;" height="60" />
      <rect x="474" y="54" transform="translate(3,3)" width="157" style="clip-path:url(#clipPath11); fill:none; stroke:rgb(153,153,153);" height="59" />
      <rect x="652" y="54" transform="translate(3,3)" width="158" style="clip-path:url(#clipPath12); fill:rgb(153,153,153); stroke:none;" height="60" />
      <rect x="652" y="54" transform="translate(3,3)" width="157" style="clip-path:url(#clipPath12); fill:none; stroke:rgb(153,153,153);" height="59" />
      <rect x="899" y="54" transform="translate(3,3)" width="138" style="clip-path:url(#clipPath13); fill:rgb(153,153,153); stroke:none;" height="60" />
      <rect x="899" y="54" transform="translate(3,3)" width="137" style="clip-path:url(#clipPath13); fill:none; stroke:rgb(153,153,153);" height="59" />
      <rect x="40" y="54" width="60" style="clip-path:url(#clipPath8); fill:white; stroke:none;" height="60" />
      <rect x="40" y="54" width="59" style="clip-path:url(#clipPath8); fill:none;" height="59" />
      <text x="5" y="26" transform="translate(46,54)" style="clip-path:url(#clipPath14); stroke:none;" xml:space="preserve">self</text>
      <line x1="70" x2="70" y1="114" style="clip-path:url(#clipPath15); fill:none;" y2="426" />
      <rect x="60" y="130" width="20" style="clip-path:url(#clipPath16); fill:white; stroke:none;" height="270" />
      <rect x="60" y="130" width="19" style="clip-path:url(#clipPath16); fill:none;" height="269" />
      <rect x="62" y="156" width="17" style="clip-path:url(#clipPath17); fill:rgb(240,240,240); stroke:none;" height="108" />
      <rect x="62" y="282" width="17" style="clip-path:url(#clipPath18); fill:rgb(240,240,240); stroke:none;" height="102" />
      <circle style="clip-path:url(#clipPath9); stroke:none;" r="4" cx="40" cy="130" />
      <rect x="120" y="54" width="334" style="clip-path:url(#clipPath10); fill:white; stroke:none;" height="60" />
      <rect x="120" y="54" width="333" style="clip-path:url(#clipPath10); fill:none;" height="59" />
      <text x="0" y="26" transform="translate(125,54)" style="clip-path:url(#clipPath19); stroke:none;" xml:space="preserve">playerManager</text>
      <text x="160" y="26" transform="translate(125,54)" style="clip-path:url(#clipPath20); stroke:none;" xml:space="preserve">:</text>
      <text x="165" y="26" transform="translate(125,54)" style="clip-path:url(#clipPath21); stroke:none;" xml:space="preserve">PlayerManager</text>
      <line x1="287" x2="287" y1="114" style="clip-path:url(#clipPath22); fill:none;" y2="264" />
      <rect x="277" y="156" width="20" style="clip-path:url(#clipPath23); fill:white; stroke:none;" height="108" />
      <rect x="277" y="156" width="19" style="clip-path:url(#clipPath23); fill:none;" height="107" />
      <rect x="279" y="182" width="17" style="clip-path:url(#clipPath24); fill:rgb(240,240,240); stroke:none;" height="24" />
      <rect x="279" y="224" width="17" style="clip-path:url(#clipPath25); fill:rgb(240,240,240); stroke:none;" height="24" />
      <rect x="474" y="54" width="158" style="clip-path:url(#clipPath11); fill:white; stroke:none;" height="60" />
      <rect x="474" y="54" width="157" style="clip-path:url(#clipPath11); fill:none;" height="59" />
      <text x="0" y="26" transform="translate(479,54)" style="clip-path:url(#clipPath26); stroke:none;" xml:space="preserve">playerA</text>
      <text x="80" y="26" transform="translate(479,54)" style="clip-path:url(#clipPath27); stroke:none;" xml:space="preserve">:</text>
      <text x="85" y="26" transform="translate(479,54)" style="clip-path:url(#clipPath28); stroke:none;" xml:space="preserve">Player</text>
      <line x1="553" x2="553" y1="114" style="clip-path:url(#clipPath29); fill:none;" y2="206" />
      <rect x="543" y="182" width="20" style="clip-path:url(#clipPath30); fill:white; stroke:none;" height="24" />
      <rect x="543" y="182" width="19" style="clip-path:url(#clipPath30); fill:none;" height="23" />
      <rect x="652" y="54" width="158" style="clip-path:url(#clipPath12); fill:white; stroke:none;" height="60" />
      <rect x="652" y="54" width="157" style="clip-path:url(#clipPath12); fill:none;" height="59" />
      <text x="0" y="26" transform="translate(657,54)" style="clip-path:url(#clipPath31); stroke:none;" xml:space="preserve">playerB</text>
      <text x="79" y="26" transform="translate(657,54)" style="clip-path:url(#clipPath32); stroke:none;" xml:space="preserve">:</text>
      <text x="84" y="26" transform="translate(657,54)" style="clip-path:url(#clipPath33); stroke:none;" xml:space="preserve">Player</text>
      <line x1="731" x2="731" y1="114" style="clip-path:url(#clipPath34); fill:none;" y2="248" />
      <rect x="721" y="224" width="20" style="clip-path:url(#clipPath35); fill:white; stroke:none;" height="24" />
      <rect x="721" y="224" width="19" style="clip-path:url(#clipPath35); fill:none;" height="23" />
      <rect x="899" y="54" width="138" style="clip-path:url(#clipPath13); fill:white; stroke:none;" height="60" />
      <rect x="899" y="54" width="137" style="clip-path:url(#clipPath13); fill:none;" height="59" />
      <text x="0" y="26" transform="translate(904,54)" style="clip-path:url(#clipPath36); stroke:none;" xml:space="preserve">board</text>
      <text x="62" y="26" transform="translate(904,54)" style="clip-path:url(#clipPath37); stroke:none;" xml:space="preserve">:</text>
      <text x="67" y="26" transform="translate(904,54)" style="clip-path:url(#clipPath38); stroke:none;" xml:space="preserve">Board</text>
      <line x1="968" x2="968" y1="114" style="clip-path:url(#clipPath39); fill:none;" y2="384" />
      <rect x="958" y="282" width="20" style="clip-path:url(#clipPath40); fill:white; stroke:none;" height="102" />
      <rect x="958" y="282" width="19" style="clip-path:url(#clipPath40); fill:none;" height="101" />
      <line x1="280" x2="294" y1="257" style="clip-path:url(#clipPath41); fill:none;" y2="271" />
      <line x1="280" x2="294" y1="271" style="clip-path:url(#clipPath41); fill:none;" y2="257" />
      <line x1="546" x2="560" y1="199" style="clip-path:url(#clipPath42); fill:none;" y2="213" />
      <line x1="546" x2="560" y1="213" style="clip-path:url(#clipPath42); fill:none;" y2="199" />
      <line x1="724" x2="738" y1="241" style="clip-path:url(#clipPath43); fill:none;" y2="255" />
      <line x1="724" x2="738" y1="255" style="clip-path:url(#clipPath43); fill:none;" y2="241" />
      <line x1="961" x2="975" y1="377" style="clip-path:url(#clipPath44); fill:none;" y2="391" />
      <line x1="961" x2="975" y1="391" style="clip-path:url(#clipPath44); fill:none;" y2="377" />
      <text x="0" y="26" transform="translate(848,322)" style="clip-path:url(#clipPath45); stroke:none;" xml:space="preserve">[int i = 0;i &lt; width;i++]</text>
      <rect x="834" y="301" width="268" style="clip-path:url(#clipPath6); fill:none;" height="64" />
      <polygon style="fill:white; clip-path:url(#clipPath46); stroke:none;" points=" 834 301 877 301 877 329 872 334 834 334 834 301" />
      <polygon style="fill:none; clip-path:url(#clipPath46);" points=" 834 301 877 301 877 329 872 334 834 334 834 301" />
      <text x="0" y="26" transform="translate(839,301)" style="clip-path:url(#clipPath47); stroke:none; font-weight:bold;" xml:space="preserve">for</text>
      <path d="M968 300 L968 300" style="fill:none; clip-path:url(#clipPath1);" />
      <circle style="clip-path:url(#clipPath48); fill:rgb(64,64,64); stroke:none;" r="3" cx="968" cy="300" />
      <circle style="fill:none; clip-path:url(#clipPath48);" r="3" cx="968" cy="300" />
      <path d="M968 300 L968 300" style="fill:none; clip-path:url(#clipPath1);" />
      <circle style="clip-path:url(#clipPath48); fill:rgb(64,64,64); stroke:none;" r="3" cx="968" cy="300" />
      <circle style="fill:none; clip-path:url(#clipPath48);" r="3" cx="968" cy="300" />
      <path d="M80 282 L958 282" style="fill:none; clip-path:url(#clipPath1);" />
      <polygon style="clip-path:url(#clipPath49); stroke:none;" points=" 958 282 944 285 944 279" />
      <polygon style="fill:none; clip-path:url(#clipPath49);" points=" 958 282 944 285 944 279" />
      <text x="2" y="26" transform="translate(80,250)" style="clip-path:url(#clipPath50); stroke:none;" xml:space="preserve">1.2:</text>
      <text x="0" y="26" transform="translate(122,250)" style="clip-path:url(#clipPath51); stroke:none;" xml:space="preserve">~Board</text>
      <text x="78" y="26" transform="translate(122,250)" style="clip-path:url(#clipPath52); stroke:none;" xml:space="preserve">()</text>
      <path d="M80 282 L958 282" style="fill:none; clip-path:url(#clipPath1);" />
      <polygon style="clip-path:url(#clipPath49); stroke:none;" points=" 958 282 944 285 944 279" />
      <polygon style="fill:none; clip-path:url(#clipPath49);" points=" 958 282 944 285 944 279" />
      <text x="2" y="26" transform="translate(80,250)" style="clip-path:url(#clipPath50); stroke:none;" xml:space="preserve">1.2:</text>
      <text x="0" y="26" transform="translate(122,250)" style="clip-path:url(#clipPath51); stroke:none;" xml:space="preserve">~Board</text>
      <text x="78" y="26" transform="translate(122,250)" style="clip-path:url(#clipPath52); stroke:none;" xml:space="preserve">()</text>
      <path d="M80 156 L277 156" style="fill:none; clip-path:url(#clipPath1);" />
      <polygon style="clip-path:url(#clipPath53); stroke:none;" points=" 277 156 263 159 263 153" />
      <polygon style="fill:none; clip-path:url(#clipPath53);" points=" 277 156 263 159 263 153" />
      <text x="2" y="26" transform="translate(80,124)" style="clip-path:url(#clipPath50); stroke:none;" xml:space="preserve">1.1:</text>
      <text x="0" y="26" transform="translate(122,124)" style="clip-path:url(#clipPath54); stroke:none;" xml:space="preserve">~PlayerManager</text>
      <text x="175" y="26" transform="translate(122,124)" style="clip-path:url(#clipPath55); stroke:none;" xml:space="preserve">()</text>
      <path d="M80 156 L277 156" style="fill:none; clip-path:url(#clipPath1);" />
      <polygon style="clip-path:url(#clipPath53); stroke:none;" points=" 277 156 263 159 263 153" />
      <polygon style="fill:none; clip-path:url(#clipPath53);" points=" 277 156 263 159 263 153" />
      <text x="2" y="26" transform="translate(80,124)" style="clip-path:url(#clipPath50); stroke:none;" xml:space="preserve">1.1:</text>
      <text x="0" y="26" transform="translate(122,124)" style="clip-path:url(#clipPath54); stroke:none;" xml:space="preserve">~PlayerManager</text>
      <text x="175" y="26" transform="translate(122,124)" style="clip-path:url(#clipPath55); stroke:none;" xml:space="preserve">()</text>
      <path d="M297 182 L543 182" style="fill:none; clip-path:url(#clipPath1);" />
      <polygon style="clip-path:url(#clipPath56); stroke:none;" points=" 543 182 529 185 529 179" />
      <polygon style="fill:none; clip-path:url(#clipPath56);" points=" 543 182 529 185 529 179" />
      <text x="2" y="26" transform="translate(297,150)" style="clip-path:url(#clipPath57); stroke:none;" xml:space="preserve">1.1.1:</text>
      <text x="2" y="26" transform="translate(355,150)" style="clip-path:url(#clipPath58); stroke:none;" xml:space="preserve">*</text>
      <path d="M297 182 L543 182" style="fill:none; clip-path:url(#clipPath1);" />
      <polygon style="clip-path:url(#clipPath56); stroke:none;" points=" 543 182 529 185 529 179" />
      <polygon style="fill:none; clip-path:url(#clipPath56);" points=" 543 182 529 185 529 179" />
      <text x="2" y="26" transform="translate(297,150)" style="clip-path:url(#clipPath57); stroke:none;" xml:space="preserve">1.1.1:</text>
      <text x="2" y="26" transform="translate(355,150)" style="clip-path:url(#clipPath58); stroke:none;" xml:space="preserve">*</text>
      <path d="M297 224 L721 224" style="fill:none; clip-path:url(#clipPath1);" />
      <polygon style="clip-path:url(#clipPath59); stroke:none;" points=" 721 224 707 227 707 221" />
      <polygon style="fill:none; clip-path:url(#clipPath59);" points=" 721 224 707 227 707 221" />
      <text x="2" y="26" transform="translate(297,192)" style="clip-path:url(#clipPath57); stroke:none;" xml:space="preserve">1.1.2:</text>
      <text x="2" y="26" transform="translate(355,192)" style="clip-path:url(#clipPath58); stroke:none;" xml:space="preserve">*</text>
      <path d="M297 224 L721 224" style="fill:none; clip-path:url(#clipPath1);" />
      <polygon style="clip-path:url(#clipPath59); stroke:none;" points=" 721 224 707 227 707 221" />
      <polygon style="fill:none; clip-path:url(#clipPath59);" points=" 721 224 707 227 707 221" />
      <text x="2" y="26" transform="translate(297,192)" style="clip-path:url(#clipPath57); stroke:none;" xml:space="preserve">1.1.2:</text>
      <text x="2" y="26" transform="translate(355,192)" style="clip-path:url(#clipPath58); stroke:none;" xml:space="preserve">*</text>
      <path d="M40 130 L60 130" style="fill:none; clip-path:url(#clipPath1);" />
      <polygon style="clip-path:url(#clipPath60); stroke:none;" points=" 60 130 46 133 46 127" />
      <polygon style="fill:none; clip-path:url(#clipPath60);" points=" 60 130 46 133 46 127" />
      <text x="2" y="26" transform="translate(40,98)" style="clip-path:url(#clipPath61); stroke:none;" xml:space="preserve">1:</text>
      <text x="0" y="26" transform="translate(64,98)" style="clip-path:url(#clipPath62); stroke:none;" xml:space="preserve">exitGame</text>
      <text x="100" y="26" transform="translate(64,98)" style="clip-path:url(#clipPath63); stroke:none;" xml:space="preserve">():void</text>
      <path d="M40 130 L60 130" style="fill:none; clip-path:url(#clipPath1);" />
      <polygon style="clip-path:url(#clipPath60); stroke:none;" points=" 60 130 46 133 46 127" />
      <polygon style="fill:none; clip-path:url(#clipPath60);" points=" 60 130 46 133 46 127" />
      <text x="2" y="26" transform="translate(40,98)" style="clip-path:url(#clipPath61); stroke:none;" xml:space="preserve">1:</text>
      <text x="0" y="26" transform="translate(64,98)" style="clip-path:url(#clipPath62); stroke:none;" xml:space="preserve">exitGame</text>
      <text x="100" y="26" transform="translate(64,98)" style="clip-path:url(#clipPath63); stroke:none;" xml:space="preserve">():void</text>
    </g>
  </g>
</svg>
