<?xml version="1.0" encoding="UTF-8"?>

<!DOCTYPE svg PUBLIC '-//W3C//DTD SVG 1.0//EN' 'http://www.w3.org/TR/2001/REC-SVG-20010904/DTD/svg10.dtd'>
<svg style="fill-opacity:1; color-rendering:auto; color-interpolation:auto; text-rendering:auto; stroke:black; stroke-linecap:square; stroke-miterlimit:10; shape-rendering:auto; stroke-opacity:1; fill:black; stroke-dasharray:none; font-weight:normal; stroke-width:1; font-family:&apos;Dialog&apos;; font-style:normal; stroke-linejoin:miter; font-size:12; stroke-dashoffset:0; image-rendering:auto;" xmlns="http://www.w3.org/2000/svg" width="2376" xmlns:xlink="http://www.w3.org/1999/xlink" height="878">
  <!--Generated by Selena using Batik-->
  <defs id="genericDefs" />
  <g>
    <defs id="defs1">
      <clipPath clipPathUnits="userSpaceOnUse" id="clipPath1">
        <path d="M0 0 L12000 0 L12000 12000 L0 12000 L0 0 Z" />
      </clipPath>
      <clipPath clipPathUnits="userSpaceOnUse" id="clipPath2">
        <path d="M10 10 L10 402 L285 402 L285 10 Z" />
      </clipPath>
      <clipPath clipPathUnits="userSpaceOnUse" id="clipPath3">
        <path d="M10 10 L10 44 L265 44 L265 10 Z" />
      </clipPath>
      <clipPath clipPathUnits="userSpaceOnUse" id="clipPath4">
        <path d="M0 0 L0 32 L33 32 L33 0 Z" />
      </clipPath>
      <clipPath clipPathUnits="userSpaceOnUse" id="clipPath5">
        <path d="M0 0 L0 32 L212 32 L212 0 Z" />
      </clipPath>
      <clipPath clipPathUnits="userSpaceOnUse" id="clipPath6">
        <path d="M43 185 L43 318 L197 318 L197 185 Z" />
      </clipPath>
      <clipPath clipPathUnits="userSpaceOnUse" id="clipPath7">
        <path d="M43 205 L43 318 L197 318 L197 205 Z" />
      </clipPath>
      <clipPath clipPathUnits="userSpaceOnUse" id="clipPath8">
        <path d="M80 54 L80 114 L140 114 L140 54 Z" />
      </clipPath>
      <clipPath clipPathUnits="userSpaceOnUse" id="clipPath9">
        <path d="M72 122 L72 138 L88 138 L88 122 Z" />
      </clipPath>
      <clipPath clipPathUnits="userSpaceOnUse" id="clipPath10">
        <path d="M0 0 L0 32 L47 32 L47 0 Z" />
      </clipPath>
      <clipPath clipPathUnits="userSpaceOnUse" id="clipPath11">
        <path d="M53 114 L53 392 L187 392 L187 114 Z" />
      </clipPath>
      <clipPath clipPathUnits="userSpaceOnUse" id="clipPath12">
        <path d="M100 130 L100 366 L140 366 L140 130 Z" />
      </clipPath>
      <clipPath clipPathUnits="userSpaceOnUse" id="clipPath13">
        <path d="M100 156 L100 350 L140 350 L140 156 Z" />
      </clipPath>
      <clipPath clipPathUnits="userSpaceOnUse" id="clipPath14">
        <path d="M110 167 L110 336 L140 336 L140 167 Z" />
      </clipPath>
      <clipPath clipPathUnits="userSpaceOnUse" id="clipPath15">
        <path d="M110 255 L110 304 L140 304 L140 255 Z" />
      </clipPath>
      <clipPath clipPathUnits="userSpaceOnUse" id="clipPath16">
        <path d="M120 266 L120 290 L140 290 L140 266 Z" />
      </clipPath>
      <clipPath clipPathUnits="userSpaceOnUse" id="clipPath17">
        <path d="M0 0 L0 32 L124 32 L124 0 Z" />
      </clipPath>
      <clipPath clipPathUnits="userSpaceOnUse" id="clipPath18">
        <path d="M44 186 L44 220 L93 220 L93 186 Z" />
      </clipPath>
      <clipPath clipPathUnits="userSpaceOnUse" id="clipPath19">
        <path d="M0 0 L0 32 L39 32 L39 0 Z" />
      </clipPath>
      <clipPath clipPathUnits="userSpaceOnUse" id="clipPath20">
        <path d="M117 182 L117 189 L124 189 L124 182 Z" />
      </clipPath>
      <clipPath clipPathUnits="userSpaceOnUse" id="clipPath21">
        <path d="M130 164 L130 171 L145 171 L145 164 Z" />
      </clipPath>
      <clipPath clipPathUnits="userSpaceOnUse" id="clipPath22">
        <path d="M0 0 L0 32 L40 32 L40 0 Z" />
      </clipPath>
      <clipPath clipPathUnits="userSpaceOnUse" id="clipPath23">
        <path d="M0 0 L0 32 L120 32 L120 0 Z" />
      </clipPath>
      <clipPath clipPathUnits="userSpaceOnUse" id="clipPath24">
        <path d="M120 0 L120 32 L185 32 L185 0 Z" />
      </clipPath>
      <clipPath clipPathUnits="userSpaceOnUse" id="clipPath25">
        <path d="M140 263 L140 270 L155 270 L155 263 Z" />
      </clipPath>
      <clipPath clipPathUnits="userSpaceOnUse" id="clipPath26">
        <path d="M0 0 L0 32 L58 32 L58 0 Z" />
      </clipPath>
      <clipPath clipPathUnits="userSpaceOnUse" id="clipPath27">
        <path d="M86 127 L86 134 L101 134 L101 127 Z" />
      </clipPath>
      <clipPath clipPathUnits="userSpaceOnUse" id="clipPath28">
        <path d="M0 0 L0 32 L22 32 L22 0 Z" />
      </clipPath>
      <clipPath clipPathUnits="userSpaceOnUse" id="clipPath29">
        <path d="M0 0 L0 32 L76 32 L76 0 Z" />
      </clipPath>
      <clipPath clipPathUnits="userSpaceOnUse" id="clipPath30">
        <path d="M76 0 L76 32 L287 32 L287 0 Z" />
      </clipPath>
    </defs>
    <g style="fill:white; stroke:white;">
      <rect x="0" y="0" width="2376" style="clip-path:url(#clipPath1); stroke:none;" height="878" />
      <rect x="0" y="0" width="2375" style="clip-path:url(#clipPath1); fill:none; stroke:blue;" height="877" />
      <rect x="10" y="10" width="275" style="clip-path:url(#clipPath2); stroke:none;" height="392" />
    </g>
    <g style="font-family:&apos;Segoe UI&apos;; font-size:24;">
      <rect x="10" y="10" width="274" style="clip-path:url(#clipPath2); fill:none;" height="391" />
      <polygon style="fill:white; clip-path:url(#clipPath3); stroke:none;" points=" 10 10 264 10 264 38 259 43 10 43 10 10" />
      <polygon style="fill:none; clip-path:url(#clipPath3);" points=" 10 10 264 10 264 38 259 43 10 43 10 10" />
      <text x="0" y="26" transform="translate(15,10)" style="clip-path:url(#clipPath4); stroke:none; font-weight:bold;" xml:space="preserve">sd </text>
      <text x="0" y="26" transform="translate(48,10)" style="clip-path:url(#clipPath5); stroke:none;" xml:space="preserve">LocalPlayer.recieve1</text>
      <rect x="43" y="185" width="154" style="clip-path:url(#clipPath6); fill:rgb(230,233,241); stroke:none;" height="133" />
      <rect x="43" y="205" width="154" style="clip-path:url(#clipPath7); fill:rgb(230,233,241); stroke:none;" height="113" />
      <rect x="80" y="54" transform="translate(3,3)" width="60" style="clip-path:url(#clipPath8); fill:rgb(153,153,153); stroke:none;" height="60" />
      <rect x="80" y="54" transform="translate(3,3)" width="59" style="clip-path:url(#clipPath8); fill:none; stroke:rgb(153,153,153);" height="59" />
      <circle transform="translate(3,3)" style="clip-path:url(#clipPath9); fill:rgb(153,153,153); stroke:none;" r="4" cx="80" cy="130" />
      <rect x="80" y="54" width="60" style="clip-path:url(#clipPath8); fill:white; stroke:none;" height="60" />
      <rect x="80" y="54" width="59" style="clip-path:url(#clipPath8); fill:none;" height="59" />
      <text x="5" y="26" transform="translate(86,54)" style="clip-path:url(#clipPath10); stroke:none;" xml:space="preserve">self</text>
      <line x1="110" x2="110" y1="114" style="clip-path:url(#clipPath11); fill:none;" y2="392" />
      <rect x="100" y="130" width="20" style="clip-path:url(#clipPath12); fill:white; stroke:none;" height="236" />
      <rect x="100" y="130" width="19" style="clip-path:url(#clipPath12); fill:none;" height="235" />
      <rect x="102" y="156" width="17" style="clip-path:url(#clipPath13); fill:rgb(240,240,240); stroke:none;" height="194" />
      <rect x="110" y="167" width="20" style="clip-path:url(#clipPath14); fill:white; stroke:none;" height="169" />
      <rect x="110" y="167" width="19" style="clip-path:url(#clipPath14); fill:none;" height="168" />
      <rect x="112" y="255" width="17" style="clip-path:url(#clipPath15); fill:rgb(240,240,240); stroke:none;" height="49" />
      <rect x="120" y="266" width="20" style="clip-path:url(#clipPath16); fill:white; stroke:none;" height="24" />
      <rect x="120" y="266" width="19" style="clip-path:url(#clipPath16); fill:none;" height="23" />
      <circle style="clip-path:url(#clipPath9); stroke:none;" r="4" cx="80" cy="130" />
      <text x="0" y="26" transform="translate(58,207)" style="clip-path:url(#clipPath17); stroke:none;" xml:space="preserve">[!send(pos)]</text>
      <rect x="44" y="186" width="152" style="clip-path:url(#clipPath6); fill:none;" height="131" />
      <polygon style="fill:white; clip-path:url(#clipPath18); stroke:none;" points=" 44 186 92 186 92 214 87 219 44 219 44 186" />
      <polygon style="fill:none; clip-path:url(#clipPath18);" points=" 44 186 92 186 92 214 87 219 44 219 44 186" />
      <text x="0" y="26" transform="translate(49,186)" style="clip-path:url(#clipPath19); stroke:none; font-weight:bold;" xml:space="preserve">opt</text>
      <path d="M120 185 L120 185" style="fill:none; clip-path:url(#clipPath1);" />
      <circle style="clip-path:url(#clipPath20); fill:rgb(64,64,64); stroke:none;" r="3" cx="120" cy="185" />
      <circle style="fill:none; clip-path:url(#clipPath20);" r="3" cx="120" cy="185" />
      <path d="M120 185 L120 185" style="fill:none; clip-path:url(#clipPath1);" />
      <circle style="clip-path:url(#clipPath20); fill:rgb(64,64,64); stroke:none;" r="3" cx="120" cy="185" />
      <circle style="fill:none; clip-path:url(#clipPath20);" r="3" cx="120" cy="185" />
      <path d="M120 156 L147 156 L147 167 L130 167" style="fill:none; clip-path:url(#clipPath1);" />
      <polygon style="clip-path:url(#clipPath21); stroke:none;" points=" 130 167 144 164 144 170" />
      <polygon style="fill:none; clip-path:url(#clipPath21);" points=" 130 167 144 164 144 170" />
      <text x="2" y="26" transform="translate(120,124)" style="clip-path:url(#clipPath22); stroke:none;" xml:space="preserve">1.1:</text>
      <text x="0" y="26" transform="translate(162,124)" style="clip-path:url(#clipPath23); stroke:none;" xml:space="preserve">readMouse</text>
      <text x="120" y="26" transform="translate(162,124)" style="clip-path:url(#clipPath24); stroke:none;" xml:space="preserve">():void</text>
      <path d="M120 156 L147 156 L147 167 L130 167" style="fill:none; clip-path:url(#clipPath1);" />
      <polygon style="clip-path:url(#clipPath21); stroke:none;" points=" 130 167 144 164 144 170" />
      <polygon style="fill:none; clip-path:url(#clipPath21);" points=" 130 167 144 164 144 170" />
      <text x="2" y="26" transform="translate(120,124)" style="clip-path:url(#clipPath22); stroke:none;" xml:space="preserve">1.1:</text>
      <text x="0" y="26" transform="translate(162,124)" style="clip-path:url(#clipPath23); stroke:none;" xml:space="preserve">readMouse</text>
      <text x="120" y="26" transform="translate(162,124)" style="clip-path:url(#clipPath24); stroke:none;" xml:space="preserve">():void</text>
      <path d="M130 255 L157 255 L157 266 L140 266" style="fill:none; clip-path:url(#clipPath1);" />
      <polygon style="clip-path:url(#clipPath25); stroke:none;" points=" 140 266 154 263 154 269" />
      <polygon style="fill:none; clip-path:url(#clipPath25);" points=" 140 266 154 263 154 269" />
      <text x="2" y="26" transform="translate(130,223)" style="clip-path:url(#clipPath26); stroke:none;" xml:space="preserve">1.1.1:</text>
      <text x="0" y="26" transform="translate(190,223)" style="clip-path:url(#clipPath23); stroke:none;" xml:space="preserve">readMouse</text>
      <text x="120" y="26" transform="translate(190,223)" style="clip-path:url(#clipPath24); stroke:none;" xml:space="preserve">():void</text>
      <path d="M130 255 L157 255 L157 266 L140 266" style="fill:none; clip-path:url(#clipPath1);" />
      <polygon style="clip-path:url(#clipPath25); stroke:none;" points=" 140 266 154 263 154 269" />
      <polygon style="fill:none; clip-path:url(#clipPath25);" points=" 140 266 154 263 154 269" />
      <text x="2" y="26" transform="translate(130,223)" style="clip-path:url(#clipPath26); stroke:none;" xml:space="preserve">1.1.1:</text>
      <text x="0" y="26" transform="translate(190,223)" style="clip-path:url(#clipPath23); stroke:none;" xml:space="preserve">readMouse</text>
      <text x="120" y="26" transform="translate(190,223)" style="clip-path:url(#clipPath24); stroke:none;" xml:space="preserve">():void</text>
      <path d="M80 130 L100 130" style="fill:none; clip-path:url(#clipPath1);" />
      <polygon style="clip-path:url(#clipPath27); stroke:none;" points=" 100 130 86 133 86 127" />
      <polygon style="fill:none; clip-path:url(#clipPath27);" points=" 100 130 86 133 86 127" />
      <text x="2" y="26" transform="translate(80,98)" style="clip-path:url(#clipPath28); stroke:none;" xml:space="preserve">1:</text>
      <text x="0" y="26" transform="translate(104,98)" style="clip-path:url(#clipPath29); stroke:none;" xml:space="preserve">recieve</text>
      <text x="76" y="26" transform="translate(104,98)" style="clip-path:url(#clipPath30); stroke:none;" xml:space="preserve">(in position:int):void</text>
      <path d="M80 130 L100 130" style="fill:none; clip-path:url(#clipPath1);" />
      <polygon style="clip-path:url(#clipPath27); stroke:none;" points=" 100 130 86 133 86 127" />
      <polygon style="fill:none; clip-path:url(#clipPath27);" points=" 100 130 86 133 86 127" />
      <text x="2" y="26" transform="translate(80,98)" style="clip-path:url(#clipPath28); stroke:none;" xml:space="preserve">1:</text>
      <text x="0" y="26" transform="translate(104,98)" style="clip-path:url(#clipPath29); stroke:none;" xml:space="preserve">recieve</text>
      <text x="76" y="26" transform="translate(104,98)" style="clip-path:url(#clipPath30); stroke:none;" xml:space="preserve">(in position:int):void</text>
    </g>
  </g>
</svg>
